<svg width="422" height="204" viewBox="0 0 422 204" fill="none" xmlns="http://www.w3.org/2000/svg">
<g opacity="0.1" clip-path="url(#clip0_555_1546)">
<path d="M315.013 175.128C313.448 176.14 311.601 176.624 309.741 176.512C307.881 176.4 306.105 175.696 304.674 174.503L304.403 174.279C302.709 172.892 301.601 170.916 301.3 168.747C300.999 166.578 301.527 164.375 302.779 162.579L304.374 160.268C304.933 159.459 305.309 158.538 305.479 157.57C305.648 156.601 305.605 155.607 305.353 154.657L304.715 152.243C304.196 150.269 304.383 148.176 305.243 146.326C306.103 144.475 307.583 142.983 309.426 142.107C311.269 141.23 313.36 141.025 315.338 141.527C317.316 142.028 319.057 143.204 320.261 144.852L327.237 154.617C328.037 155.735 328.6 157.004 328.894 158.346C329.188 159.688 329.206 161.076 328.948 162.426C328.689 163.776 328.158 165.058 327.388 166.197C326.619 167.335 325.625 168.305 324.469 169.047L315.013 175.128Z" fill="#414042" fill-opacity="0.55"/>
<path d="M330.067 170.793C330.752 167.366 334.944 165.314 339.428 166.211C343.913 167.108 346.993 170.614 346.308 174.041C345.622 177.469 341.431 179.521 336.946 178.624C332.461 177.727 329.381 174.221 330.067 170.793Z" fill="#414042" fill-opacity="0.55"/>
<path d="M333.851 155.327C334.537 151.899 338.729 149.847 343.213 150.744C347.698 151.641 350.778 155.147 350.093 158.575C349.407 162.002 345.216 164.054 340.731 163.157C336.246 162.26 333.166 158.754 333.851 155.327Z" fill="#414042" fill-opacity="0.55"/>
<path d="M342.082 141.776C342.23 143.05 341.839 144.316 340.95 145.437C339.661 147.063 337.518 148.159 335.07 148.441C330.835 148.929 327.088 146.734 326.717 143.548C326.662 143.075 326.682 142.595 326.775 142.128C326.95 141.306 327.318 140.538 327.849 139.887C329.138 138.26 331.281 137.165 333.729 136.882C337.965 136.395 341.712 138.59 342.082 141.776Z" fill="#414042" fill-opacity="0.55"/>
<path d="M318.947 182.726C318.768 181.986 318.748 181.216 318.89 180.468C318.998 179.924 319.205 179.404 319.5 178.933C321.206 176.217 325.533 175.847 329.146 178.109C331.234 179.416 332.697 181.326 333.161 183.349C333.481 184.744 333.29 186.055 332.608 187.142C330.902 189.858 326.575 190.228 322.962 187.966C320.874 186.659 319.411 184.749 318.947 182.726Z" fill="#414042" fill-opacity="0.55"/>
<path d="M363.627 143.093C362.062 144.104 360.215 144.589 358.354 144.477C356.494 144.365 354.719 143.661 353.287 142.468L353.017 142.244C351.798 141.245 350.873 139.933 350.341 138.449C349.81 136.965 349.691 135.364 349.999 133.818C350.236 132.643 350.71 131.529 351.393 130.543L352.987 128.233C353.546 127.424 353.923 126.503 354.092 125.534C354.261 124.566 354.219 123.572 353.967 122.622L353.329 120.208C352.811 118.234 352.999 116.142 353.859 114.292C354.719 112.442 356.198 110.951 358.041 110.075C359.883 109.199 361.974 108.994 363.951 109.495C365.929 109.995 367.67 111.171 368.874 112.818L375.85 122.583C376.65 123.701 377.213 124.969 377.507 126.312C377.801 127.654 377.82 129.042 377.561 130.391C377.302 131.741 376.771 133.024 376.001 134.162C375.232 135.3 374.238 136.27 373.082 137.013L363.627 143.093Z" fill="#414042" fill-opacity="0.55"/>
<path d="M378.684 138.758C379.368 135.336 383.567 133.28 388.045 134.176C392.524 135.071 395.609 138.584 394.925 142.006C394.24 145.429 390.042 147.485 385.563 146.589C381.084 145.693 377.999 142.18 378.684 138.758Z" fill="#414042" fill-opacity="0.55"/>
<path d="M382.461 123.295C383.146 119.873 387.344 117.817 391.823 118.713C396.302 119.608 399.387 123.121 398.702 126.543C398.018 129.966 393.819 132.022 389.34 131.126C384.862 130.23 381.777 126.718 382.461 123.295Z" fill="#414042" fill-opacity="0.55"/>
<path d="M390.692 109.744C390.839 111.019 390.449 112.285 389.56 113.406C388.271 115.032 386.128 116.127 383.68 116.41C379.445 116.898 375.697 114.703 375.327 111.517C375.272 111.043 375.291 110.564 375.385 110.096C375.56 109.274 375.928 108.506 376.459 107.855C377.748 106.228 379.892 105.133 382.339 104.851C386.574 104.363 390.321 106.559 390.692 109.744Z" fill="#414042" fill-opacity="0.55"/>
<path d="M367.556 150.694C367.377 149.954 367.358 149.185 367.499 148.437C367.607 147.892 367.814 147.372 368.11 146.902C369.815 144.186 374.142 143.816 377.755 146.078C379.843 147.385 381.306 149.295 381.771 151.318C382.09 152.712 381.899 154.024 381.217 155.11C379.512 157.827 375.185 158.197 371.571 155.934C369.483 154.628 368.02 152.718 367.556 150.694Z" fill="#414042" fill-opacity="0.55"/>
</g>
<g opacity="0.1" clip-path="url(#clip1_555_1546)">
<path d="M23.1957 87.1713C21.6275 88.1777 19.7787 88.6568 17.919 88.5385C16.0594 88.4202 14.2862 87.7108 12.8582 86.5137L12.5885 86.289C10.899 84.8958 9.7972 82.9167 9.50296 80.7468C9.20871 78.5769 9.74369 76.3759 11.0011 74.5831L12.6031 72.2773C13.1646 71.4701 13.5445 70.5508 13.7167 69.5827C13.8888 68.6146 13.8491 67.6207 13.6003 66.6695L12.9697 64.2536C12.4574 62.2783 12.6509 60.186 13.5168 58.3381C14.3827 56.4903 15.8667 55.0027 17.7125 54.1323C19.5583 53.262 21.6501 53.0634 23.6267 53.5709C25.6033 54.0784 27.3406 55.2602 28.5388 56.9121L35.4846 66.6993C36.2803 67.8196 36.8401 69.0899 37.1298 70.4331C37.4196 71.7764 37.4333 73.1645 37.1702 74.5132C36.907 75.8619 36.3725 77.143 35.5991 78.2788C34.8256 79.4146 33.8294 80.3814 32.6709 81.1204L23.1957 87.1713Z" fill="#414042" fill-opacity="0.55"/>
<path d="M38.2646 82.8828C38.961 79.4572 43.1588 77.4187 47.6408 78.3298C52.1227 79.2409 55.1916 82.7565 54.4952 86.1821C53.7989 89.6077 49.601 91.6462 45.1191 90.7351C40.6371 89.824 37.5683 86.3084 38.2646 82.8828Z" fill="#414042" fill-opacity="0.55"/>
<path d="M42.0924 67.4316C42.7887 64.0059 46.9866 61.9675 51.4687 62.8786C55.9508 63.7897 59.0197 67.3053 58.3234 70.7309C57.627 74.1566 53.4291 76.195 48.947 75.2839C44.4649 74.3728 41.396 70.8572 42.0924 67.4316Z" fill="#414042" fill-opacity="0.55"/>
<path d="M50.3661 53.9072C50.5104 55.1817 50.115 56.4468 49.2227 57.5648C47.9282 59.1869 45.7817 60.2757 43.3332 60.5505C39.0963 61.0247 35.3561 58.818 34.9957 55.631C34.9419 55.1574 34.963 54.6783 35.0583 54.2113C35.2354 53.3899 35.6059 52.6227 36.1391 51.9733C37.4334 50.3511 39.58 49.2626 42.0286 48.9876C46.2655 48.5133 50.0057 50.7201 50.3661 53.9072Z" fill="#414042" fill-opacity="0.55"/>
<path d="M27.1001 94.7834C26.9235 94.0429 26.9067 93.2733 27.0507 92.5258C27.1607 91.9816 27.3691 91.4621 27.6657 90.9929C29.3797 88.2815 33.708 87.9257 37.314 90.1992C39.3975 91.5127 40.8549 93.4271 41.3129 95.452C41.6282 96.8474 41.4324 98.1581 40.747 99.2424C39.0331 101.954 34.705 102.31 31.0987 100.036C29.015 98.7226 27.5576 96.8082 27.1001 94.7834Z" fill="#414042" fill-opacity="0.55"/>
<path d="M71.9071 55.2924C70.3389 56.2989 68.4901 56.778 66.6304 56.6597C64.7708 56.5414 62.9976 55.8319 61.5695 54.6348L61.3 54.4102C60.0838 53.4071 59.163 52.0924 58.6362 50.6066C58.1093 49.1208 57.9961 47.5197 58.3087 45.9746C58.5489 44.8002 59.0266 43.6873 59.7125 42.7043L61.3147 40.3984C61.8761 39.5912 62.256 38.6719 62.4281 37.7039C62.6002 36.7358 62.5605 35.7419 62.3117 34.7906L61.6812 32.3746C61.17 30.3996 61.3641 28.3081 62.2302 26.461C63.0963 24.6138 64.58 23.1269 66.4252 22.2569C68.2705 21.3868 70.3616 21.1881 72.3377 21.6951C74.3138 22.2022 76.051 23.3831 77.2494 25.0341L84.1952 34.821C84.991 35.9413 85.5508 37.2116 85.8406 38.5548C86.1304 39.8981 86.1441 41.2862 85.881 42.6349C85.6178 43.9836 85.0833 45.2647 84.3098 46.4005C83.5364 47.5363 82.5401 48.503 81.3816 49.242L71.9071 55.2924Z" fill="#414042" fill-opacity="0.55"/>
<path d="M86.9793 51.0058C87.6745 47.5856 91.8799 45.543 96.3554 46.4528C100.831 47.3626 103.905 50.8849 103.21 54.3052C102.515 57.7254 98.3095 59.7679 93.8337 58.8581C89.358 57.9483 86.2841 54.4259 86.9793 51.0058Z" fill="#414042" fill-opacity="0.55"/>
<path d="M90.8074 35.5527C91.5026 32.1325 95.708 30.0899 100.184 30.9997C104.659 31.9095 107.733 35.4318 107.038 38.852C106.343 42.2723 102.138 44.3148 97.662 43.405C93.1865 42.4953 90.1122 38.9727 90.8074 35.5527Z" fill="#414042" fill-opacity="0.55"/>
<path d="M99.081 22.0282C99.2249 23.3029 98.8303 24.5677 97.9378 25.6859C96.6433 27.3081 94.4968 28.3968 92.0483 28.6716C87.8116 29.1458 84.0713 26.9394 83.7108 23.7523C83.657 23.2783 83.6783 22.7988 83.7737 22.3315C83.9508 21.5101 84.3213 20.7429 84.8544 20.0934C86.1489 18.4713 88.2955 17.3826 90.7437 17.1089C94.9806 16.6344 98.7208 18.8412 99.081 22.0282Z" fill="#414042" fill-opacity="0.55"/>
<path d="M75.8146 62.9043C75.6382 62.1639 75.6215 61.3943 75.7655 60.6469C75.8752 60.1027 76.0837 59.5831 76.3805 59.1139C78.0944 56.4027 82.4227 56.0467 86.0288 58.3202C88.1121 59.6336 89.5695 61.5481 90.0276 63.573C90.3429 64.9684 90.1474 66.2791 89.4619 67.3636C87.748 70.0746 83.4199 70.4308 79.8135 68.1571C77.7295 66.8441 76.2722 64.9291 75.8146 62.9043Z" fill="#414042" fill-opacity="0.55"/>
</g>
<g opacity="0.1" clip-path="url(#clip2_555_1546)">
<path d="M169.161 130.646C167.592 131.652 165.744 132.131 163.884 132.013C162.024 131.895 160.251 131.185 158.823 129.988L158.553 129.764C156.864 128.37 155.762 126.391 155.468 124.221C155.174 122.052 155.709 119.85 156.966 118.058L158.568 115.752C159.129 114.945 159.509 114.025 159.682 113.057C159.854 112.089 159.814 111.095 159.565 110.144L158.935 107.728C158.422 105.753 158.616 103.661 159.482 101.813C160.348 99.9649 161.832 98.4773 163.677 97.6069C165.523 96.7366 167.615 96.538 169.592 97.0455C171.568 97.553 173.305 98.7348 174.504 100.387L181.449 110.174C182.245 111.294 182.805 112.564 183.095 113.908C183.384 115.251 183.398 116.639 183.135 117.988C182.872 119.336 182.337 120.618 181.564 121.753C180.79 122.889 179.794 123.856 178.636 124.595L169.161 130.646Z" fill="#414042" fill-opacity="0.55"/>
<path d="M184.229 126.357C184.926 122.932 189.124 120.893 193.606 121.804C198.088 122.715 201.156 126.231 200.46 129.657C199.764 133.082 195.566 135.121 191.084 134.21C186.602 133.299 183.533 129.783 184.229 126.357Z" fill="#414042" fill-opacity="0.55"/>
<path d="M188.057 110.906C188.754 107.481 192.951 105.442 197.434 106.353C201.916 107.264 204.985 110.78 204.288 114.206C203.592 117.631 199.394 119.67 194.912 118.759C190.43 117.847 187.361 114.332 188.057 110.906Z" fill="#414042" fill-opacity="0.55"/>
<path d="M196.331 97.3818C196.475 98.6563 196.08 99.9214 195.188 101.039C193.893 102.662 191.747 103.75 189.298 104.025C185.061 104.499 181.321 102.293 180.961 99.1056C180.907 98.632 180.928 98.1529 181.023 97.6859C181.2 96.8645 181.571 96.0973 182.104 95.4479C183.398 93.8257 185.545 92.7372 187.993 92.4622C192.23 91.9879 195.971 94.1947 196.331 97.3818Z" fill="#414042" fill-opacity="0.55"/>
<path d="M173.065 138.258C172.888 137.517 172.872 136.748 173.016 136C173.126 135.456 173.334 134.937 173.631 134.468C175.345 131.756 179.673 131.4 183.279 133.674C185.362 134.987 186.82 136.902 187.278 138.927C187.593 140.322 187.397 141.633 186.712 142.717C184.998 145.428 180.67 145.784 177.064 143.511C174.98 142.197 173.522 140.283 173.065 138.258Z" fill="#414042" fill-opacity="0.55"/>
<path d="M217.872 98.767C216.304 99.7735 214.455 100.253 212.595 100.134C210.736 100.016 208.962 99.3065 207.534 98.1094L207.265 97.8848C206.049 96.8817 205.128 95.567 204.601 94.0812C204.074 92.5954 203.961 90.9943 204.274 89.4492C204.514 88.2748 204.991 87.1619 205.677 86.1789L207.28 83.8731C207.841 83.0658 208.221 82.1466 208.393 81.1785C208.565 80.2104 208.525 79.2165 208.277 78.2652L207.646 75.8492C207.135 73.8742 207.329 71.7827 208.195 69.9356C209.061 68.0884 210.545 66.6015 212.39 65.7315C214.235 64.8614 216.326 64.6627 218.303 65.1698C220.279 65.6768 222.016 66.8577 223.214 68.5087L230.16 78.2957C230.956 79.4159 231.516 80.6862 231.805 82.0294C232.095 83.3727 232.109 84.7608 231.846 86.1095C231.583 87.4582 231.048 88.7393 230.275 89.8751C229.501 91.0109 228.505 91.9776 227.346 92.7166L217.872 98.767Z" fill="#414042" fill-opacity="0.55"/>
<path d="M232.944 94.4804C233.639 91.0602 237.845 89.0176 242.32 89.9274C246.796 90.8372 249.87 94.3595 249.175 97.7798C248.48 101.2 244.274 103.243 239.799 102.333C235.323 101.423 232.249 97.9005 232.944 94.4804Z" fill="#414042" fill-opacity="0.55"/>
<path d="M236.772 79.0273C237.467 75.6071 241.673 73.5645 246.149 74.4743C250.624 75.3842 253.698 78.9064 253.003 82.3266C252.308 85.7469 248.102 87.7894 243.627 86.8796C239.151 85.9699 236.077 82.4473 236.772 79.0273Z" fill="#414042" fill-opacity="0.55"/>
<path d="M245.046 65.5028C245.19 66.7775 244.795 68.0423 243.903 69.1606C242.608 70.7827 240.462 71.8714 238.013 72.1463C233.776 72.6204 230.036 70.414 229.676 67.2269C229.622 66.7529 229.643 66.2734 229.739 65.8061C229.916 64.9848 230.286 64.2175 230.819 63.5681C232.114 61.946 234.26 60.8572 236.709 60.5835C240.945 60.109 244.686 62.3158 245.046 65.5028Z" fill="#414042" fill-opacity="0.55"/>
<path d="M221.779 106.379C221.603 105.638 221.586 104.869 221.73 104.122C221.84 103.577 222.049 103.058 222.345 102.589C224.059 99.8773 228.388 99.5213 231.994 101.795C234.077 103.108 235.534 105.023 235.992 107.048C236.308 108.443 236.112 109.754 235.427 110.838C233.713 113.549 229.385 113.905 225.778 111.632C223.694 110.319 222.237 108.404 221.779 106.379Z" fill="#414042" fill-opacity="0.55"/>
</g>
<defs>
<clipPath id="clip0_555_1546">
<rect width="98.5317" height="98.5317" fill="white" transform="matrix(0.196108 -0.980582 -0.980582 -0.196108 388.59 203.92)"/>
</clipPath>
<clipPath id="clip1_555_1546">
<rect width="98.5317" height="98.5317" fill="white" transform="matrix(0.199203 -0.979958 -0.979958 -0.199203 96.6797 116.197)"/>
</clipPath>
<clipPath id="clip2_555_1546">
<rect width="98.5317" height="98.5317" fill="white" transform="matrix(0.199203 -0.979958 -0.979958 -0.199203 242.645 159.672)"/>
</clipPath>
</defs>
</svg>
