<svg width="422" height="204" viewBox="0 0 422 204" fill="none" xmlns="http://www.w3.org/2000/svg">
<g opacity="0.1" clip-path="url(#clip0_555_1512)">
<path d="M107.034 175.122C108.599 176.134 110.446 176.619 112.306 176.506C114.166 176.394 115.942 175.69 117.373 174.497L117.644 174.273C119.338 172.886 120.446 170.91 120.747 168.741C121.048 166.572 120.52 164.369 119.268 162.573L117.673 160.262C117.114 159.453 116.737 158.532 116.568 157.564C116.399 156.595 116.442 155.601 116.694 154.651L117.332 152.237C117.851 150.263 117.664 148.17 116.804 146.32C115.944 144.469 114.464 142.977 112.621 142.101C110.778 141.225 108.687 141.019 106.709 141.521C104.731 142.022 102.99 143.198 101.786 144.846L94.8096 154.612C94.0103 155.729 93.4466 156.998 93.1526 158.34C92.8586 159.683 92.8405 161.071 93.0993 162.42C93.3582 163.77 93.8887 165.052 94.6585 166.191C95.4284 167.329 96.4215 168.299 97.5777 169.042L107.034 175.122Z" fill="#414042" fill-opacity="0.55"/>
<path d="M91.9802 170.788C91.2946 167.36 87.1032 165.308 82.6184 166.205C78.1336 167.102 75.0537 170.608 75.7392 174.036C76.4247 177.463 80.6161 179.515 85.1009 178.618C89.5858 177.721 92.6657 174.215 91.9802 170.788Z" fill="#414042" fill-opacity="0.55"/>
<path d="M88.1954 155.321C87.5098 151.893 83.3184 149.841 78.8334 150.738C74.3485 151.635 71.2685 155.141 71.954 158.569C72.6396 161.997 76.8311 164.048 81.316 163.151C85.8009 162.254 88.8809 158.748 88.1954 155.321Z" fill="#414042" fill-opacity="0.55"/>
<path d="M79.9647 141.77C79.8164 143.044 80.2078 144.31 81.0965 145.431C82.386 147.057 84.5289 148.153 86.9766 148.435C91.212 148.923 94.9592 146.728 95.3296 143.542C95.3849 143.069 95.3653 142.59 95.2715 142.122C95.097 141.3 94.7289 140.532 94.1978 139.881C92.9086 138.255 90.7654 137.159 88.3177 136.877C84.0823 136.389 80.3352 138.584 79.9647 141.77Z" fill="#414042" fill-opacity="0.55"/>
<path d="M103.1 182.72C103.279 181.98 103.298 181.21 103.157 180.462C103.049 179.918 102.842 179.398 102.547 178.928C100.841 176.211 96.5141 175.841 92.9008 178.103C90.8132 179.41 89.3498 181.32 88.8854 183.344C88.5657 184.738 88.7573 186.049 89.4393 187.136C91.1447 189.852 95.4716 190.222 99.0851 187.96C101.173 186.653 102.636 184.743 103.1 182.72Z" fill="#414042" fill-opacity="0.55"/>
<path d="M58.4201 143.087C59.9851 144.099 61.8324 144.583 63.6924 144.471C65.5524 144.359 67.3278 143.655 68.7596 142.462L69.0299 142.238C70.2492 141.239 71.1741 139.927 71.7057 138.443C72.2373 136.959 72.3555 135.358 72.0478 133.812C71.8113 132.637 71.3371 131.523 70.6544 130.538L69.0594 128.227C68.5005 127.418 68.1236 126.497 67.9545 125.529C67.7854 124.56 67.8283 123.566 68.0801 122.616L68.7182 120.202C69.2357 118.228 69.0482 116.136 68.1879 114.286C67.3277 112.437 65.8487 110.945 64.0062 110.069C62.1636 109.193 60.0732 108.988 58.0955 109.489C56.1178 109.989 54.3769 111.165 53.1733 112.812L46.1966 122.577C45.3973 123.695 44.8335 124.963 44.5395 126.306C44.2454 127.648 44.2273 129.036 44.4862 130.386C44.7451 131.735 45.2755 133.018 46.0454 134.156C46.8153 135.294 47.8085 136.264 48.9647 137.007L58.4201 143.087Z" fill="#414042" fill-opacity="0.55"/>
<path d="M43.3632 138.752C42.6787 135.33 38.4798 133.274 34.0014 134.17C29.523 135.065 26.4376 138.578 27.122 142C27.8065 145.423 32.0053 147.479 36.4839 146.583C40.9626 145.687 44.0476 142.175 43.3632 138.752Z" fill="#414042" fill-opacity="0.55"/>
<path d="M39.5858 123.289C38.9014 119.867 34.7025 117.811 30.2239 118.707C25.7453 119.603 22.6602 123.115 23.3447 126.538C24.0291 129.96 28.228 132.016 32.7064 131.12C37.1848 130.224 40.2702 126.712 39.5858 123.289Z" fill="#414042" fill-opacity="0.55"/>
<path d="M31.3553 109.739C31.2074 111.013 31.598 112.279 32.4869 113.4C33.7763 115.026 35.9193 116.122 38.367 116.404C42.6022 116.892 46.3494 114.697 46.72 111.511C46.7752 111.037 46.7555 110.558 46.6615 110.09C46.487 109.268 46.119 108.5 45.588 107.849C44.2985 106.222 42.1554 105.127 39.7081 104.846C35.4727 104.358 31.7255 106.553 31.3553 109.739Z" fill="#414042" fill-opacity="0.55"/>
<path d="M54.4912 150.688C54.6699 149.949 54.6891 149.179 54.5475 148.431C54.4394 147.887 54.2326 147.366 53.9373 146.896C52.232 144.18 47.9048 143.81 44.2916 146.072C42.2041 147.379 40.7407 149.289 40.2762 151.312C39.9564 152.707 40.1478 154.018 40.8299 155.105C42.5352 157.821 46.8622 158.191 50.4758 155.929C52.5639 154.622 54.0272 152.712 54.4912 150.688Z" fill="#414042" fill-opacity="0.55"/>
</g>
<g opacity="0.1" clip-path="url(#clip1_555_1512)">
<path d="M398.851 87.1654C400.419 88.1719 402.268 88.6509 404.128 88.5326C405.987 88.4143 407.761 87.7049 409.189 86.5078L409.458 86.2831C411.148 84.89 412.25 82.9109 412.544 80.741C412.838 78.5711 412.303 76.37 411.046 74.5773L409.444 72.2714C408.882 71.4642 408.502 70.5449 408.33 69.5769C408.158 68.6088 408.198 67.6149 408.447 66.6636L409.077 64.2478C409.589 62.2724 409.396 60.1802 408.53 58.3323C407.664 56.4844 406.18 54.9968 404.334 54.1265C402.489 53.2561 400.397 53.0575 398.42 53.565C396.444 54.0726 394.706 55.2543 393.508 56.9063L386.562 66.6934C385.767 67.8137 385.207 69.084 384.917 70.4273C384.627 71.7705 384.614 73.1586 384.877 74.5073C385.14 75.856 385.674 77.1372 386.448 78.273C387.221 79.4088 388.217 80.3755 389.376 81.1145L398.851 87.1654Z" fill="#414042" fill-opacity="0.55"/>
<path d="M383.782 82.8769C383.086 79.4513 378.888 77.4129 374.406 78.3239C369.924 79.235 366.855 82.7506 367.552 86.1763C368.248 89.6019 372.446 91.6403 376.928 90.7293C381.41 89.8182 384.479 86.3026 383.782 82.8769Z" fill="#414042" fill-opacity="0.55"/>
<path d="M379.955 67.4257C379.258 64.0001 375.06 61.9616 370.578 62.8727C366.096 63.7838 363.027 67.2995 363.724 70.7251C364.42 74.1507 368.618 76.1891 373.1 75.278C377.582 74.3669 380.651 70.8513 379.955 67.4257Z" fill="#414042" fill-opacity="0.55"/>
<path d="M371.681 53.9013C371.537 55.1759 371.932 56.4409 372.824 57.559C374.119 59.1811 376.265 60.2699 378.714 60.5447C382.951 61.0188 386.691 58.8122 387.051 55.6251C387.105 55.1515 387.084 54.6724 386.989 54.2054C386.811 53.3841 386.441 52.6168 385.908 51.9674C384.613 50.3453 382.467 49.2567 380.018 48.9817C375.781 48.5074 372.041 50.7142 371.681 53.9013Z" fill="#414042" fill-opacity="0.55"/>
<path d="M394.947 94.7775C395.123 94.037 395.14 93.2674 394.996 92.5199C394.886 91.9758 394.678 91.4563 394.381 90.9871C392.667 88.2757 388.339 87.9199 384.733 90.1933C382.649 91.5068 381.192 93.4213 380.734 95.4462C380.419 96.8415 380.614 98.1522 381.3 99.2365C383.014 101.948 387.342 102.304 390.948 100.03C393.032 98.7167 394.489 96.8023 394.947 94.7775Z" fill="#414042" fill-opacity="0.55"/>
<path d="M350.14 55.2865C351.708 56.2931 353.557 56.7721 355.416 56.6538C357.276 56.5355 359.049 55.8261 360.477 54.629L360.747 54.4043C361.963 53.4013 362.884 52.0866 363.411 50.6008C363.938 49.1149 364.051 47.5139 363.738 45.9687C363.498 44.7943 363.02 43.6815 362.334 42.6984L360.732 40.3926C360.171 39.5854 359.791 38.6661 359.619 37.698C359.447 36.7299 359.486 35.736 359.735 34.7847L360.366 32.3688C360.877 30.3938 360.683 28.3022 359.817 26.4551C358.951 24.6079 357.467 23.1211 355.622 22.251C353.776 21.3809 351.685 21.1823 349.709 21.6893C347.733 22.1963 345.996 23.3772 344.798 25.0282L337.852 34.8152C337.056 35.9354 336.496 37.2057 336.206 38.549C335.917 39.8922 335.903 41.2803 336.166 42.629C336.429 43.9777 336.964 45.2589 337.737 46.3947C338.51 47.5304 339.507 48.4972 340.665 49.2361L350.14 55.2865Z" fill="#414042" fill-opacity="0.55"/>
<path d="M335.068 51C334.372 47.5797 330.167 45.5372 325.691 46.447C321.216 47.3567 318.142 50.8791 318.837 54.2993C319.532 57.7195 323.737 59.7621 328.213 58.8523C332.689 57.9424 335.763 54.42 335.068 51Z" fill="#414042" fill-opacity="0.55"/>
<path d="M331.239 35.5468C330.544 32.1266 326.339 30.0841 321.863 30.9939C317.387 31.9037 314.313 35.4259 315.009 38.8462C315.704 42.2664 319.909 44.309 324.385 43.3992C328.86 42.4894 331.935 38.9669 331.239 35.5468Z" fill="#414042" fill-opacity="0.55"/>
<path d="M322.966 22.0224C322.822 23.2971 323.217 24.5619 324.109 25.6801C325.404 27.3022 327.55 28.391 329.999 28.6658C334.235 29.14 337.976 26.9335 338.336 23.7464C338.39 23.2724 338.369 22.793 338.273 22.3256C338.096 21.5043 337.726 20.737 337.193 20.0876C335.898 18.4655 333.751 17.3768 331.303 17.103C327.066 16.6285 323.326 18.8353 322.966 22.0224Z" fill="#414042" fill-opacity="0.55"/>
<path d="M346.232 62.8984C346.409 62.158 346.425 61.3885 346.281 60.6411C346.172 60.0968 345.963 59.5773 345.666 59.1081C343.952 56.3968 339.624 56.0409 336.018 58.3143C333.935 59.6278 332.477 61.5422 332.019 63.5671C331.704 64.9625 331.899 66.2733 332.585 67.3578C334.299 70.0688 338.627 70.425 342.233 68.1513C344.317 66.8382 345.775 64.9233 346.232 62.8984Z" fill="#414042" fill-opacity="0.55"/>
</g>
<g opacity="0.1" clip-path="url(#clip2_555_1512)">
<path d="M252.886 130.64C254.455 131.646 256.303 132.126 258.163 132.007C260.023 131.889 261.796 131.18 263.224 129.982L263.494 129.758C265.183 128.365 266.285 126.385 266.579 124.216C266.873 122.046 266.338 119.845 265.081 118.052L263.479 115.746C262.917 114.939 262.538 114.02 262.365 113.051C262.193 112.083 262.233 111.089 262.482 110.138L263.112 107.722C263.625 105.747 263.431 103.655 262.565 101.807C261.699 99.959 260.215 98.4715 258.37 97.6011C256.524 96.7307 254.432 96.5321 252.455 97.0397C250.479 97.5472 248.741 98.7289 247.543 100.381L240.597 110.168C239.802 111.288 239.242 112.559 238.952 113.902C238.662 115.245 238.649 116.633 238.912 117.982C239.175 119.331 239.71 120.612 240.483 121.748C241.256 122.883 242.253 123.85 243.411 124.589L252.886 130.64Z" fill="#414042" fill-opacity="0.55"/>
<path d="M237.817 126.352C237.121 122.926 232.923 120.887 228.441 121.799C223.959 122.71 220.89 126.225 221.587 129.651C222.283 133.076 226.481 135.115 230.963 134.204C235.445 133.293 238.514 129.777 237.817 126.352Z" fill="#414042" fill-opacity="0.55"/>
<path d="M233.99 110.9C233.293 107.475 229.095 105.436 224.613 106.347C220.131 107.258 217.062 110.774 217.759 114.2C218.455 117.625 222.653 119.664 227.135 118.753C231.617 117.842 234.686 114.326 233.99 110.9Z" fill="#414042" fill-opacity="0.55"/>
<path d="M225.716 97.3759C225.572 98.6505 225.967 99.9155 226.859 101.034C228.154 102.656 230.3 103.744 232.749 104.019C236.986 104.493 240.726 102.287 241.086 99.0997C241.14 98.6261 241.119 98.147 241.024 97.68C240.847 96.8587 240.476 96.0914 239.943 95.442C238.649 93.8199 236.502 92.7313 234.053 92.4563C229.817 91.982 226.076 94.1888 225.716 97.3759Z" fill="#414042" fill-opacity="0.55"/>
<path d="M248.982 138.252C249.159 137.512 249.175 136.742 249.031 135.995C248.921 135.45 248.713 134.931 248.416 134.462C246.702 131.75 242.374 131.394 238.768 133.668C236.685 134.981 235.227 136.896 234.769 138.921C234.454 140.316 234.65 141.627 235.335 142.711C237.049 145.422 241.377 145.778 244.983 143.505C247.067 142.191 248.524 140.277 248.982 138.252Z" fill="#414042" fill-opacity="0.55"/>
<path d="M204.175 98.7612C205.743 99.7677 207.592 100.247 209.452 100.128C211.311 100.01 213.084 99.3007 214.513 98.1036L214.782 97.8789C215.998 96.8759 216.919 95.5612 217.446 94.0754C217.973 92.5895 218.086 90.9885 217.773 89.4433C217.533 88.269 217.055 87.1561 216.37 86.173L214.767 83.8672C214.206 83.06 213.826 82.1407 213.654 81.1726C213.482 80.2045 213.522 79.2106 213.77 78.2594L214.401 75.8434C214.912 73.8684 214.718 71.7768 213.852 69.9297C212.986 68.0826 211.502 66.5957 209.657 65.7256C207.812 64.8555 205.72 64.6569 203.744 65.1639C201.768 65.6709 200.031 66.8518 198.833 68.5028L191.887 78.2898C191.091 79.41 190.531 80.6804 190.241 82.0236C189.952 83.3668 189.938 84.7549 190.201 86.1036C190.464 87.4523 190.999 88.7335 191.772 89.8693C192.546 91.0051 193.542 91.9718 194.7 92.7107L204.175 98.7612Z" fill="#414042" fill-opacity="0.55"/>
<path d="M189.103 94.4746C188.408 91.0543 184.202 89.0118 179.727 89.9216C175.251 90.8313 172.177 94.3537 172.872 97.7739C173.567 101.194 177.773 103.237 182.248 102.327C186.724 101.417 189.798 97.8946 189.103 94.4746Z" fill="#414042" fill-opacity="0.55"/>
<path d="M185.275 79.0214C184.579 75.6012 180.374 73.5587 175.898 74.4685C171.423 75.3783 168.349 78.9006 169.044 82.3208C169.739 85.741 173.944 87.7836 178.42 86.8738C182.896 85.964 185.97 82.4415 185.275 79.0214Z" fill="#414042" fill-opacity="0.55"/>
<path d="M177.001 65.497C176.857 66.7717 177.252 68.0365 178.144 69.1547C179.439 70.7768 181.585 71.8656 184.034 72.1404C188.27 72.6146 192.011 70.4081 192.371 67.221C192.425 66.747 192.404 66.2676 192.308 65.8002C192.131 64.9789 191.761 64.2116 191.228 63.5622C189.933 61.9401 187.786 60.8514 185.338 60.5776C181.101 60.1031 177.361 62.31 177.001 65.497Z" fill="#414042" fill-opacity="0.55"/>
<path d="M200.267 106.373C200.444 105.633 200.461 104.863 200.317 104.116C200.207 103.571 199.998 103.052 199.702 102.583C197.988 99.8714 193.659 99.5155 190.053 101.789C187.97 103.102 186.513 105.017 186.054 107.042C185.739 108.437 185.935 109.748 186.62 110.832C188.334 113.543 192.662 113.9 196.269 111.626C198.353 110.313 199.81 108.398 200.267 106.373Z" fill="#414042" fill-opacity="0.55"/>
</g>
<defs>
<clipPath id="clip0_555_1512">
<rect width="98.5317" height="98.5317" fill="white" transform="translate(33.457 203.914) rotate(-101.309)"/>
</clipPath>
<clipPath id="clip1_555_1512">
<rect width="98.5317" height="98.5317" fill="white" transform="translate(325.367 116.191) rotate(-101.49)"/>
</clipPath>
<clipPath id="clip2_555_1512">
<rect width="98.5317" height="98.5317" fill="white" transform="translate(179.402 159.666) rotate(-101.49)"/>
</clipPath>
</defs>
</svg>
