<svg width="433" height="443" viewBox="0 0 433 443" fill="none" xmlns="http://www.w3.org/2000/svg">
<g opacity="0.1" clip-path="url(#clip0_692_2601)">
<path d="M93.8712 193.754C94.2054 195.587 95.1166 197.266 96.4719 198.544C97.8272 199.823 99.5557 200.635 101.405 200.863L101.753 200.907C103.925 201.191 106.123 200.646 107.91 199.381C109.698 198.116 110.942 196.223 111.394 194.08L111.987 191.336C112.194 190.375 112.607 189.47 113.197 188.683C113.788 187.897 114.541 187.248 115.407 186.781L117.603 185.593C119.397 184.62 120.794 183.051 121.554 181.157C122.314 179.263 122.389 177.164 121.766 175.22C121.143 173.277 119.861 171.612 118.142 170.513C116.422 169.415 114.373 168.951 112.347 169.202L100.453 170.802C99.0913 170.984 97.7807 171.442 96.6009 172.147C95.4212 172.851 94.3971 173.788 93.5906 174.901C92.7841 176.013 92.2122 177.278 91.9095 178.619C91.6069 179.959 91.5798 181.347 91.83 182.698L93.8712 193.754Z" fill="#414042" fill-opacity="0.55"/>
<path d="M86.7229 179.813C88.7522 176.966 87.3783 172.506 83.6543 169.851C79.9302 167.196 75.2661 167.351 73.2369 170.198C71.2076 173.044 72.5815 177.504 76.3055 180.159C80.0296 182.814 84.6937 182.659 86.7229 179.813Z" fill="#414042" fill-opacity="0.55"/>
<path d="M95.4049 166.475C97.4342 163.628 96.0602 159.169 92.3361 156.514C88.6119 153.858 83.9478 154.013 81.9185 156.86C79.8892 159.706 81.2632 164.166 84.9873 166.821C88.7115 169.476 93.3756 169.321 95.4049 166.475Z" fill="#414042" fill-opacity="0.55"/>
<path d="M99.6516 151.196C98.6214 151.96 97.9663 153.113 97.7577 154.528C97.4551 156.581 98.1236 158.893 99.5933 160.871C102.137 164.292 106.303 165.52 108.878 163.609C109.261 163.326 109.597 162.983 109.874 162.595C110.353 161.905 110.661 161.111 110.772 160.278C111.075 158.225 110.406 155.913 108.937 153.935C106.393 150.514 102.227 149.285 99.6516 151.196Z" fill="#414042" fill-opacity="0.55"/>
<path d="M85.6385 196.097C86.3003 195.72 86.8744 195.208 87.3226 194.592C87.6454 194.141 87.883 193.634 88.0236 193.097C88.8365 189.994 86.1434 186.587 82.0209 185.502C79.6391 184.875 77.2451 185.115 75.4523 186.162C74.2171 186.884 73.3924 187.921 73.0673 189.162C72.2546 192.265 74.9474 195.672 79.07 196.757C81.452 197.384 83.846 197.144 85.6385 196.097Z" fill="#414042" fill-opacity="0.55"/>
<path d="M83.9373 136.39C84.2714 138.224 85.1826 139.902 86.5379 141.181C87.8933 142.46 89.6218 143.272 91.4713 143.499L91.8194 143.543C93.3825 143.748 94.9719 143.524 96.4176 142.895C97.8634 142.267 99.1111 141.257 100.027 139.974C100.722 138.997 101.21 137.889 101.461 136.717L102.053 133.972C102.26 133.011 102.673 132.106 103.263 131.32C103.854 130.533 104.607 129.884 105.473 129.417L107.669 128.23C109.462 127.256 110.858 125.687 111.618 123.793C112.377 121.9 112.452 119.801 111.829 117.858C111.206 115.915 109.925 114.251 108.206 113.152C106.487 112.054 104.438 111.589 102.413 111.84L90.5193 113.439C89.1574 113.622 87.8467 114.079 86.667 114.784C85.4873 115.488 84.4631 116.426 83.6566 117.538C82.8502 118.651 82.2782 119.916 81.9756 121.256C81.673 122.596 81.646 123.984 81.8962 125.335L83.9373 136.39Z" fill="#414042" fill-opacity="0.55"/>
<path d="M76.7895 122.449C78.8156 119.607 77.4396 115.139 73.7208 112.488C70.002 109.837 65.3293 109.993 63.3033 112.834C61.2772 115.676 62.6532 120.144 66.3721 122.796C70.091 125.447 74.7635 125.291 76.7895 122.449Z" fill="#414042" fill-opacity="0.55"/>
<path d="M85.4731 109.111C87.4992 106.27 86.1232 101.802 82.4043 99.1501C78.6853 96.4988 74.0129 96.6547 71.9869 99.4966C69.9608 102.338 71.3368 106.807 75.0555 109.458C78.7743 112.109 83.4471 111.953 85.4731 109.111Z" fill="#414042" fill-opacity="0.55"/>
<path d="M89.718 93.8329C88.688 94.5974 88.0325 95.7489 87.8239 97.1643C87.5213 99.2174 88.1898 101.53 89.6595 103.507C92.2035 106.928 96.3686 108.157 98.9446 106.246C99.3278 105.962 99.6638 105.619 99.9403 105.231C100.42 104.541 100.728 103.746 100.839 102.914C101.142 100.86 100.473 98.5482 99.0029 96.5717C96.459 93.1504 92.2937 91.9217 89.718 93.8329Z" fill="#414042" fill-opacity="0.55"/>
<path d="M75.7052 138.726C76.3669 138.349 76.9409 137.837 77.389 137.221C77.712 136.77 77.9497 136.263 78.0902 135.726C78.9029 132.623 76.21 129.216 72.0875 128.131C69.7058 127.504 67.3118 127.744 65.5189 128.791C64.2836 129.513 63.4588 130.55 63.1336 131.791C62.321 134.894 65.0137 138.301 69.1366 139.386C71.5184 140.014 73.9127 139.773 75.7052 138.726Z" fill="#414042" fill-opacity="0.55"/>
</g>
<g opacity="0.1" clip-path="url(#clip1_692_2601)">
<path d="M357.756 346.254C358.096 348.086 359.013 349.761 360.372 351.036C361.732 352.311 363.463 353.117 365.313 353.339L365.661 353.382C367.833 353.659 370.03 353.108 371.813 351.837C373.596 350.566 374.835 348.669 375.281 346.525L375.865 343.779C376.069 342.817 376.479 341.91 377.066 341.122C377.654 340.334 378.406 339.682 379.27 339.213L381.462 338.018C383.253 337.039 384.645 335.466 385.4 333.57C386.154 331.674 386.222 329.574 385.593 327.632C384.964 325.691 383.676 324.03 381.953 322.937C380.23 321.844 378.179 321.386 376.155 321.644L364.266 323.281C362.905 323.468 361.595 323.93 360.418 324.638C359.24 325.346 358.219 326.287 357.416 327.402C356.613 328.517 356.045 329.784 355.747 331.125C355.449 332.466 355.426 333.854 355.68 335.205L357.756 346.254Z" fill="#414042" fill-opacity="0.55"/>
<path d="M350.565 332.334C352.585 329.482 351.197 325.026 347.465 322.383C343.732 319.74 339.069 319.91 337.049 322.762C335.028 325.615 336.416 330.071 340.149 332.714C343.881 335.357 348.545 335.187 350.565 332.334Z" fill="#414042" fill-opacity="0.55"/>
<path d="M359.21 318.968C361.23 316.115 359.842 311.659 356.11 309.016C352.377 306.373 347.714 306.542 345.693 309.395C343.673 312.248 345.061 316.703 348.794 319.347C352.526 321.99 357.19 321.82 359.21 318.968Z" fill="#414042" fill-opacity="0.55"/>
<path d="M363.406 303.674C362.378 304.442 361.727 305.596 361.522 307.012C361.226 309.066 361.902 311.376 363.378 313.349C365.933 316.762 370.102 317.978 372.672 316.058C373.054 315.773 373.389 315.43 373.664 315.041C374.141 314.349 374.447 313.554 374.555 312.721C374.852 310.667 374.175 308.357 372.7 306.384C370.145 302.971 365.976 301.755 363.406 303.674Z" fill="#414042" fill-opacity="0.55"/>
<path d="M349.531 348.62C350.192 348.242 350.764 347.727 351.211 347.111C351.532 346.658 351.768 346.151 351.907 345.613C352.71 342.508 350.006 339.109 345.88 338.037C343.496 337.417 341.103 337.666 339.314 338.718C338.081 339.444 337.259 340.484 336.938 341.725C336.135 344.831 338.839 348.229 342.965 349.302C345.349 349.921 347.742 349.673 349.531 348.62Z" fill="#414042" fill-opacity="0.55"/>
<path d="M347.645 288.927C347.985 290.759 348.901 292.435 350.26 293.71C351.62 294.984 353.351 295.791 355.201 296.012L355.549 296.055C357.113 296.255 358.702 296.026 360.146 295.393C361.589 294.76 362.834 293.746 363.746 292.46C364.438 291.481 364.922 290.371 365.169 289.198L365.753 286.452C365.957 285.49 366.367 284.584 366.955 283.796C367.542 283.007 368.294 282.356 369.158 281.886L371.351 280.692C373.14 279.712 374.532 278.139 375.285 276.243C376.039 274.347 376.107 272.248 375.478 270.307C374.849 268.366 373.562 266.706 371.84 265.613C370.117 264.52 368.067 264.062 366.043 264.318L354.154 265.956C352.793 266.142 351.484 266.604 350.306 267.312C349.129 268.021 348.107 268.961 347.305 270.076C346.502 271.191 345.934 272.458 345.635 273.799C345.337 275.141 345.314 276.529 345.569 277.879L347.645 288.927Z" fill="#414042" fill-opacity="0.55"/>
<path d="M340.454 275.003C342.471 272.154 341.081 267.691 337.354 265.051C333.627 262.412 328.954 262.582 326.937 265.43C324.92 268.279 326.31 272.742 330.038 275.382C333.765 278.021 338.437 277.851 340.454 275.003Z" fill="#414042" fill-opacity="0.55"/>
<path d="M349.098 261.633C351.116 258.785 349.725 254.321 345.998 251.682C342.271 249.042 337.599 249.213 335.582 252.061C333.565 254.909 334.955 259.373 338.682 262.013C342.409 264.652 347.081 264.482 349.098 261.633Z" fill="#414042" fill-opacity="0.55"/>
<path d="M353.294 246.342C352.267 247.11 351.615 248.264 351.411 249.68C351.115 251.734 351.791 254.044 353.267 256.017C355.821 259.43 359.99 260.645 362.56 258.726C362.942 258.441 363.277 258.097 363.553 257.708C364.03 257.016 364.336 256.221 364.444 255.388C364.74 253.334 364.064 251.024 362.588 249.052C360.033 245.639 355.864 244.423 353.294 246.342Z" fill="#414042" fill-opacity="0.55"/>
<path d="M339.42 291.286C340.081 290.908 340.653 290.394 341.099 289.777C341.421 289.324 341.657 288.817 341.796 288.279C342.599 285.174 339.895 281.775 335.769 280.703C333.385 280.084 330.992 280.332 329.202 281.384C327.97 282.11 327.148 283.149 326.827 284.392C326.024 287.497 328.727 290.895 332.854 291.968C335.237 292.588 337.631 292.339 339.42 291.286Z" fill="#414042" fill-opacity="0.55"/>
</g>
<g opacity="0.1" clip-path="url(#clip2_692_2601)">
<path d="M226.141 269.619C226.481 271.451 227.398 273.127 228.757 274.401C230.116 275.676 231.847 276.483 233.698 276.704L234.046 276.747C236.218 277.025 238.415 276.473 240.198 275.202C241.981 273.931 243.219 272.034 243.665 269.89L244.249 267.144C244.453 266.182 244.863 265.276 245.451 264.487C246.039 263.699 246.791 263.048 247.654 262.578L249.847 261.384C251.638 260.405 253.03 258.831 253.784 256.935C254.538 255.039 254.607 252.939 253.978 250.997C253.348 249.056 252.061 247.395 250.338 246.302C248.615 245.209 246.564 244.751 244.54 245.009L232.651 246.646C231.289 246.833 229.98 247.295 228.803 248.003C227.625 248.712 226.604 249.652 225.801 250.767C224.998 251.882 224.43 253.149 224.132 254.49C223.833 255.832 223.811 257.22 224.065 258.57L226.141 269.619Z" fill="#414042" fill-opacity="0.55"/>
<path d="M218.95 255.7C220.97 252.847 219.582 248.392 215.85 245.748C212.117 243.105 207.454 243.275 205.433 246.128C203.413 248.98 204.801 253.436 208.534 256.079C212.266 258.722 216.93 258.552 218.95 255.7Z" fill="#414042" fill-opacity="0.55"/>
<path d="M227.595 242.333C229.615 239.48 228.227 235.025 224.494 232.381C220.762 229.738 216.098 229.908 214.078 232.76C212.058 235.613 213.446 240.069 217.178 242.712C220.911 245.355 225.574 245.186 227.595 242.333Z" fill="#414042" fill-opacity="0.55"/>
<path d="M231.791 227.04C230.763 227.807 230.111 228.961 229.907 230.377C229.611 232.431 230.287 234.741 231.763 236.714C234.318 240.127 238.487 241.343 241.057 239.424C241.439 239.139 241.773 238.795 242.049 238.406C242.526 237.715 242.832 236.919 242.94 236.086C243.236 234.032 242.56 231.722 241.084 229.749C238.53 226.336 234.36 225.12 231.791 227.04Z" fill="#414042" fill-opacity="0.55"/>
<path d="M217.916 271.986C218.577 271.607 219.149 271.093 219.595 270.476C219.917 270.023 220.153 269.516 220.292 268.978C221.095 265.873 218.391 262.474 214.265 261.402C211.881 260.783 209.488 261.031 207.698 262.083C206.465 262.809 205.644 263.849 205.323 265.091C204.52 268.196 207.224 271.595 211.35 272.667C213.734 273.287 216.127 273.038 217.916 271.986Z" fill="#414042" fill-opacity="0.55"/>
<path d="M216.029 212.293C216.369 214.125 217.286 215.8 218.645 217.075C220.005 218.349 221.736 219.156 223.586 219.378L223.934 219.42C225.498 219.62 227.087 219.391 228.53 218.758C229.974 218.125 231.219 217.111 232.131 215.826C232.822 214.847 233.307 213.737 233.554 212.564L234.138 209.817C234.342 208.855 234.752 207.949 235.339 207.161C235.927 206.373 236.679 205.721 237.543 205.251L239.735 204.057C241.525 203.078 242.917 201.504 243.67 199.608C244.424 197.712 244.492 195.613 243.863 193.672C243.234 191.732 241.947 190.071 240.224 188.978C238.502 187.885 236.452 187.427 234.428 187.684L222.539 189.321C221.178 189.508 219.868 189.969 218.691 190.678C217.513 191.386 216.492 192.326 215.689 193.441C214.886 194.557 214.318 195.823 214.02 197.165C213.722 198.506 213.699 199.894 213.954 201.244L216.029 212.293Z" fill="#414042" fill-opacity="0.55"/>
<path d="M208.839 198.368C210.856 195.52 209.466 191.056 205.739 188.416C202.011 185.777 197.339 185.947 195.322 188.796C193.305 191.644 194.695 196.108 198.422 198.747C202.15 201.387 206.822 201.216 208.839 198.368Z" fill="#414042" fill-opacity="0.55"/>
<path d="M217.483 184.999C219.5 182.15 218.11 177.687 214.383 175.047C210.656 172.407 205.984 172.578 203.967 175.426C201.95 178.275 203.34 182.738 207.067 185.378C210.794 188.017 215.466 187.847 217.483 184.999Z" fill="#414042" fill-opacity="0.55"/>
<path d="M221.679 169.708C220.652 170.475 220 171.629 219.796 173.045C219.5 175.099 220.175 177.409 221.651 179.382C224.206 182.795 228.375 184.011 230.945 182.092C231.327 181.806 231.662 181.462 231.937 181.073C232.415 180.382 232.721 179.586 232.829 178.753C233.125 176.699 232.449 174.389 230.973 172.417C228.418 169.004 224.249 167.788 221.679 169.708Z" fill="#414042" fill-opacity="0.55"/>
<path d="M207.805 214.652C208.465 214.273 209.038 213.759 209.484 213.142C209.806 212.69 210.042 212.182 210.18 211.644C210.983 208.539 208.28 205.14 204.154 204.068C201.77 203.449 199.377 203.697 197.587 204.749C196.354 205.475 195.533 206.515 195.211 207.757C194.409 210.862 197.112 214.261 201.238 215.333C203.622 215.953 206.016 215.704 207.805 214.652Z" fill="#414042" fill-opacity="0.55"/>
</g>
<defs>
<clipPath id="clip0_692_2601">
<rect width="98.5317" height="98.5317" fill="white" transform="translate(22.5098 159.838) rotate(-54.5135)"/>
</clipPath>
<clipPath id="clip1_692_2601">
<rect width="98.5317" height="98.5317" fill="white" transform="translate(286.293 312.562) rotate(-54.6943)"/>
</clipPath>
<clipPath id="clip2_692_2601">
<rect width="98.5317" height="98.5317" fill="white" transform="translate(154.678 235.928) rotate(-54.6943)"/>
</clipPath>
</defs>
</svg>
