<svg width="433" height="443" viewBox="0 0 433 443" fill="none" xmlns="http://www.w3.org/2000/svg">
<g opacity="0.1" clip-path="url(#clip0_692_2567)">
<path d="M338.23 193.754C337.896 195.587 336.985 197.266 335.63 198.544C334.274 199.823 332.546 200.635 330.696 200.863L330.348 200.907C328.177 201.191 325.978 200.646 324.191 199.381C322.404 198.116 321.16 196.223 320.707 194.08L320.114 191.336C319.907 190.375 319.495 189.47 318.904 188.683C318.314 187.897 317.56 187.248 316.695 186.781L314.499 185.593C312.705 184.62 311.307 183.051 310.547 181.157C309.787 179.263 309.712 177.164 310.335 175.22C310.958 173.277 312.24 171.612 313.96 170.513C315.68 169.415 317.729 168.951 319.754 169.202L331.648 170.802C333.01 170.984 334.321 171.442 335.501 172.147C336.68 172.851 337.705 173.788 338.511 174.901C339.317 176.013 339.889 177.278 340.192 178.619C340.495 179.959 340.522 181.347 340.272 182.698L338.23 193.754Z" fill="#414042" fill-opacity="0.55"/>
<path d="M345.379 179.813C343.349 176.966 344.723 172.506 348.447 169.851C352.171 167.196 356.835 167.351 358.865 170.198C360.894 173.044 359.52 177.504 355.796 180.159C352.072 182.814 347.408 182.659 345.379 179.813Z" fill="#414042" fill-opacity="0.55"/>
<path d="M336.697 166.475C334.667 163.628 336.041 159.169 339.766 156.514C343.49 153.858 348.154 154.013 350.183 156.86C352.212 159.706 350.838 164.166 347.114 166.821C343.39 169.476 338.726 169.321 336.697 166.475Z" fill="#414042" fill-opacity="0.55"/>
<path d="M332.45 151.196C333.48 151.96 334.135 153.113 334.344 154.528C334.647 156.581 333.978 158.893 332.508 160.871C329.964 164.292 325.799 165.52 323.223 163.609C322.84 163.326 322.504 162.983 322.228 162.595C321.748 161.905 321.44 161.111 321.329 160.278C321.026 158.225 321.695 155.913 323.165 153.935C325.709 150.514 329.874 149.285 332.45 151.196Z" fill="#414042" fill-opacity="0.55"/>
<path d="M346.463 196.097C345.801 195.72 345.227 195.208 344.779 194.592C344.456 194.141 344.219 193.634 344.078 193.097C343.265 189.994 345.958 186.587 350.081 185.502C352.462 184.875 354.856 185.115 356.649 186.162C357.884 186.884 358.709 187.921 359.034 189.162C359.847 192.265 357.154 195.672 353.032 196.757C350.65 197.384 348.256 197.144 346.463 196.097Z" fill="#414042" fill-opacity="0.55"/>
<path d="M348.164 136.39C347.83 138.224 346.919 139.902 345.564 141.181C344.208 142.46 342.48 143.272 340.63 143.499L340.282 143.543C338.719 143.748 337.13 143.524 335.684 142.895C334.238 142.267 332.99 141.257 332.074 139.974C331.379 138.997 330.892 137.889 330.641 136.717L330.049 133.972C329.841 133.011 329.429 132.106 328.838 131.32C328.248 130.533 327.494 129.884 326.629 129.417L324.433 128.23C322.64 127.256 321.243 125.687 320.484 123.793C319.724 121.9 319.65 119.801 320.272 117.858C320.895 115.915 322.177 114.251 323.896 113.152C325.615 112.054 327.663 111.589 329.688 111.84L341.582 113.439C342.944 113.622 344.255 114.079 345.435 114.784C346.614 115.488 347.638 116.426 348.445 117.538C349.251 118.651 349.823 119.916 350.126 121.256C350.429 122.596 350.456 123.984 350.205 125.335L348.164 136.39Z" fill="#414042" fill-opacity="0.55"/>
<path d="M355.312 122.449C353.286 119.607 354.662 115.139 358.381 112.488C362.1 109.837 366.772 109.993 368.798 112.834C370.824 115.676 369.448 120.144 365.729 122.796C362.011 125.447 357.338 125.291 355.312 122.449Z" fill="#414042" fill-opacity="0.55"/>
<path d="M346.628 109.111C344.602 106.27 345.978 101.802 349.697 99.1501C353.416 96.4988 358.089 96.6547 360.115 99.4966C362.141 102.338 360.765 106.807 357.046 109.458C353.327 112.109 348.654 111.953 346.628 109.111Z" fill="#414042" fill-opacity="0.55"/>
<path d="M342.384 93.8329C343.414 94.5974 344.069 95.7489 344.278 97.1643C344.58 99.2174 343.912 101.53 342.442 103.507C339.898 106.928 335.733 108.157 333.157 106.246C332.774 105.962 332.438 105.619 332.161 105.231C331.682 104.541 331.373 103.746 331.262 102.914C330.96 100.86 331.628 98.5482 333.099 96.5717C335.643 93.1504 339.808 91.9217 342.384 93.8329Z" fill="#414042" fill-opacity="0.55"/>
<path d="M356.396 138.726C355.735 138.349 355.161 137.837 354.713 137.221C354.39 136.77 354.152 136.263 354.011 135.726C353.199 132.623 355.892 129.216 360.014 128.131C362.396 127.504 364.79 127.744 366.583 128.791C367.818 129.513 368.643 130.55 368.968 131.791C369.781 134.894 367.088 138.301 362.965 139.386C360.583 140.014 358.189 139.773 356.396 138.726Z" fill="#414042" fill-opacity="0.55"/>
</g>
<g opacity="0.1" clip-path="url(#clip1_692_2567)">
<path d="M74.3452 346.254C74.0052 348.086 73.0887 349.761 71.7294 351.036C70.3701 352.311 68.639 353.117 66.7888 353.339L66.4404 353.382C64.2683 353.659 62.0714 353.108 60.2883 351.837C58.5051 350.566 57.267 348.669 56.821 346.525L56.237 343.779C56.033 342.817 55.623 341.91 55.0352 341.122C54.4474 340.334 53.6957 339.682 52.832 339.213L50.6393 338.018C48.8487 337.039 47.4561 335.466 46.702 333.57C45.9478 331.674 45.8794 329.574 46.5086 327.632C47.1378 325.691 48.4251 324.03 50.1482 322.937C51.8713 321.844 53.9221 321.386 55.9465 321.644L67.8357 323.281C69.197 323.468 70.5062 323.93 71.6837 324.638C72.8612 325.346 73.8824 326.287 74.6853 327.402C75.4883 328.517 76.0562 329.784 76.3546 331.125C76.6531 332.466 76.6757 333.854 76.4213 335.205L74.3452 346.254Z" fill="#414042" fill-opacity="0.55"/>
<path d="M81.5365 332.334C79.5162 329.482 80.9042 325.026 84.6366 322.383C88.3691 319.74 93.0326 319.91 95.0529 322.762C97.0732 325.615 95.6852 330.071 91.9527 332.714C88.2203 335.357 83.5568 335.187 81.5365 332.334Z" fill="#414042" fill-opacity="0.55"/>
<path d="M72.8916 318.968C70.8714 316.115 72.2594 311.659 75.9919 309.016C79.7245 306.373 84.388 306.542 86.4083 309.395C88.4286 312.248 87.0406 316.703 83.3081 319.347C79.5755 321.99 74.9119 321.82 72.8916 318.968Z" fill="#414042" fill-opacity="0.55"/>
<path d="M68.6958 303.674C69.7236 304.442 70.375 305.596 70.5792 307.012C70.8753 309.066 70.1995 311.376 68.7235 313.349C66.1686 316.762 61.9996 317.978 59.4297 316.058C59.0477 315.773 58.7129 315.43 58.4377 315.041C57.9603 314.349 57.6547 313.554 57.5463 312.721C57.25 310.667 57.9261 308.357 59.402 306.384C61.9568 302.971 66.1259 301.755 68.6958 303.674Z" fill="#414042" fill-opacity="0.55"/>
<path d="M82.5704 348.62C81.9098 348.242 81.3373 347.727 80.8911 347.111C80.5697 346.658 80.3337 346.151 80.1948 345.613C79.3917 342.508 82.0955 339.109 86.2214 338.037C88.6052 337.417 90.9984 337.666 92.7879 338.718C94.0209 339.444 94.8423 340.484 95.1634 341.725C95.9663 344.831 93.2628 348.229 89.1368 349.302C86.7528 349.921 84.3596 349.673 82.5704 348.62Z" fill="#414042" fill-opacity="0.55"/>
<path d="M84.4568 288.927C84.1169 290.759 83.2004 292.435 81.8411 293.71C80.4817 294.984 78.7507 295.791 76.9005 296.012L76.5522 296.055C74.9884 296.255 73.3998 296.026 71.956 295.393C70.5123 294.76 69.2678 293.746 68.3555 292.46C67.6639 291.481 67.1797 290.371 66.9327 289.198L66.3488 286.452C66.1448 285.49 65.7347 284.584 65.1469 283.796C64.5591 283.007 63.8074 282.356 62.9437 281.886L60.751 280.692C58.9614 279.712 57.5697 278.139 56.8162 276.243C56.0627 274.347 55.9946 272.248 56.6237 270.307C57.2528 268.366 58.5395 266.706 60.2619 265.613C61.9843 264.52 64.0344 264.062 66.0583 264.318L77.9473 265.956C79.3087 266.142 80.6179 266.604 81.7953 267.312C82.9728 268.021 83.9941 268.961 84.797 270.076C85.6 271.191 86.1679 272.458 86.4663 273.799C86.7647 275.141 86.7873 276.529 86.5328 277.879L84.4568 288.927Z" fill="#414042" fill-opacity="0.55"/>
<path d="M91.6477 275.003C89.6306 272.154 91.0207 267.691 94.7478 265.051C98.4749 262.412 103.147 262.582 105.164 265.43C107.181 268.279 105.791 272.742 102.064 275.382C98.3366 278.021 93.6647 277.851 91.6477 275.003Z" fill="#414042" fill-opacity="0.55"/>
<path d="M83.0031 261.633C80.986 258.785 82.3761 254.321 86.1034 251.682C89.8307 249.042 94.5026 249.213 96.5197 252.061C98.5368 254.909 97.1467 259.373 93.4195 262.013C89.6924 264.652 85.0201 264.482 83.0031 261.633Z" fill="#414042" fill-opacity="0.55"/>
<path d="M78.8071 246.342C79.8347 247.11 80.4866 248.264 80.6907 249.68C80.9868 251.734 80.311 254.044 78.835 256.017C76.2803 259.43 72.1113 260.645 69.5414 258.726C69.1591 258.441 68.8242 258.097 68.5488 257.708C68.0714 257.016 67.7657 256.221 67.6573 255.388C67.3611 253.334 68.0371 251.024 69.5136 249.052C72.0683 245.639 76.2374 244.423 78.8071 246.342Z" fill="#414042" fill-opacity="0.55"/>
<path d="M92.6815 291.286C92.021 290.908 91.4486 290.394 91.0024 289.777C90.6808 289.324 90.4448 288.817 90.306 288.279C89.503 285.174 92.2067 281.775 96.3326 280.703C98.7162 280.084 101.109 280.332 102.899 281.384C104.132 282.11 104.954 283.149 105.275 284.392C106.078 287.497 103.374 290.895 99.248 291.968C96.8642 292.588 94.4706 292.339 92.6815 291.286Z" fill="#414042" fill-opacity="0.55"/>
</g>
<g opacity="0.1" clip-path="url(#clip2_692_2567)">
<path d="M205.96 269.619C205.62 271.451 204.704 273.127 203.345 274.401C201.985 275.676 200.254 276.483 198.404 276.704L198.056 276.747C195.884 277.025 193.687 276.473 191.903 275.202C190.12 273.931 188.882 272.034 188.436 269.89L187.852 267.144C187.648 266.182 187.238 265.276 186.65 264.487C186.063 263.699 185.311 263.048 184.447 262.578L182.255 261.384C180.464 260.405 179.071 258.831 178.317 256.935C177.563 255.039 177.495 252.939 178.124 250.997C178.753 249.056 180.04 247.395 181.763 246.302C183.487 245.209 185.537 244.751 187.562 245.009L199.451 246.646C200.812 246.833 202.121 247.295 203.299 248.003C204.476 248.712 205.498 249.652 206.301 250.767C207.104 251.882 207.671 253.149 207.97 254.49C208.268 255.832 208.291 257.22 208.037 258.57L205.96 269.619Z" fill="#414042" fill-opacity="0.55"/>
<path d="M213.152 255.7C211.131 252.847 212.519 248.392 216.252 245.748C219.984 243.105 224.648 243.275 226.668 246.128C228.688 248.98 227.3 253.436 223.568 256.079C219.836 258.722 215.172 258.552 213.152 255.7Z" fill="#414042" fill-opacity="0.55"/>
<path d="M204.507 242.333C202.487 239.48 203.875 235.025 207.607 232.381C211.34 229.738 216.003 229.908 218.024 232.76C220.044 235.613 218.656 240.069 214.923 242.712C211.191 245.355 206.527 245.186 204.507 242.333Z" fill="#414042" fill-opacity="0.55"/>
<path d="M200.311 227.04C201.339 227.807 201.99 228.961 202.194 230.377C202.491 232.431 201.815 234.741 200.339 236.714C197.784 240.127 193.615 241.343 191.045 239.424C190.663 239.139 190.328 238.795 190.053 238.406C189.576 237.715 189.27 236.919 189.162 236.086C188.865 234.032 189.541 231.722 191.017 229.749C193.572 226.336 197.741 225.12 200.311 227.04Z" fill="#414042" fill-opacity="0.55"/>
<path d="M214.186 271.986C213.525 271.607 212.953 271.093 212.506 270.476C212.185 270.023 211.949 269.516 211.81 268.978C211.007 265.873 213.711 262.474 217.837 261.402C220.22 260.783 222.614 261.031 224.403 262.083C225.636 262.809 226.458 263.849 226.779 265.091C227.582 268.196 224.878 271.595 220.752 272.667C218.368 273.287 215.975 273.038 214.186 271.986Z" fill="#414042" fill-opacity="0.55"/>
<path d="M216.072 212.293C215.732 214.125 214.816 215.8 213.456 217.075C212.097 218.349 210.366 219.156 208.516 219.378L208.167 219.42C206.604 219.62 205.015 219.391 203.571 218.758C202.128 218.125 200.883 217.111 199.971 215.826C199.279 214.847 198.795 213.737 198.548 212.564L197.964 209.817C197.76 208.855 197.35 207.949 196.762 207.161C196.174 206.373 195.423 205.721 194.559 205.251L192.366 204.057C190.577 203.078 189.185 201.504 188.431 199.608C187.678 197.712 187.61 195.613 188.239 193.672C188.868 191.732 190.155 190.071 191.877 188.978C193.6 187.885 195.65 187.427 197.673 187.684L209.563 189.321C210.924 189.508 212.233 189.969 213.411 190.678C214.588 191.386 215.609 192.326 216.412 193.441C217.215 194.557 217.783 195.823 218.082 197.165C218.38 198.506 218.403 199.894 218.148 201.244L216.072 212.293Z" fill="#414042" fill-opacity="0.55"/>
<path d="M223.263 198.368C221.246 195.52 222.636 191.056 226.363 188.416C230.09 185.777 234.762 185.947 236.779 188.796C238.797 191.644 237.406 196.108 233.679 198.747C229.952 201.387 225.28 201.216 223.263 198.368Z" fill="#414042" fill-opacity="0.55"/>
<path d="M214.618 184.999C212.601 182.15 213.991 177.687 217.719 175.047C221.446 172.407 226.118 172.578 228.135 175.426C230.152 178.275 228.762 182.738 225.035 185.378C221.308 188.017 216.635 187.847 214.618 184.999Z" fill="#414042" fill-opacity="0.55"/>
<path d="M210.422 169.708C211.45 170.475 212.102 171.629 212.306 173.045C212.602 175.099 211.926 177.409 210.45 179.382C207.895 182.795 203.727 184.011 201.157 182.092C200.774 181.806 200.439 181.462 200.164 181.073C199.687 180.382 199.381 179.586 199.273 178.753C198.976 176.699 199.652 174.389 201.129 172.417C203.684 169.004 207.853 167.788 210.422 169.708Z" fill="#414042" fill-opacity="0.55"/>
<path d="M224.297 214.652C223.636 214.273 223.064 213.759 222.618 213.142C222.296 212.69 222.06 212.182 221.921 211.644C221.118 208.539 223.822 205.14 227.948 204.068C230.331 203.449 232.725 203.697 234.514 204.749C235.747 205.475 236.569 206.515 236.89 207.757C237.693 210.862 234.989 214.261 230.863 215.333C228.479 215.953 226.086 215.704 224.297 214.652Z" fill="#414042" fill-opacity="0.55"/>
</g>
<defs>
<clipPath id="clip0_692_2567">
<rect width="98.5317" height="98.5317" fill="white" transform="matrix(-0.580512 -0.814252 -0.814252 0.580512 409.592 159.838)"/>
</clipPath>
<clipPath id="clip1_692_2567">
<rect width="98.5317" height="98.5317" fill="white" transform="matrix(-0.577938 -0.81608 -0.81608 0.577938 145.809 312.562)"/>
</clipPath>
<clipPath id="clip2_692_2567">
<rect width="98.5317" height="98.5317" fill="white" transform="matrix(-0.577938 -0.81608 -0.81608 0.577938 277.424 235.928)"/>
</clipPath>
</defs>
</svg>
