<svg width="222" height="24" viewBox="0 0 222 24" fill="none" xmlns="http://www.w3.org/2000/svg">
<line y1="11.6597" x2="70" y2="11.6597" stroke="#F3D44C" stroke-width="0.680628"/>
<line x1="152" y1="11.6597" x2="222" y2="11.6597" stroke="#F3D44C" stroke-width="0.680628"/>
<g clip-path="url(#clip0_950_2774)">
<path d="M106.875 7.71707C106.316 7.70832 105.778 7.50579 105.352 7.14409C104.463 6.32921 103.925 5.20178 103.85 3.99849C103.616 1.59371 104.928 0.17477 106.345 0.0165741C106.686 -0.0212805 107.032 0.00993886 107.361 0.108374C107.69 0.20681 107.996 0.370449 108.26 0.589554C108.655 0.945335 108.975 1.37564 109.203 1.85572C109.431 2.3358 109.562 2.85618 109.588 3.38693C109.804 5.62869 108.609 7.71707 106.875 7.71707ZM101.752 13.5047C101.239 13.4925 100.749 13.288 100.379 12.9318C99.5627 12.0813 99.0827 10.9631 99.029 9.7852C98.8168 7.38042 99.9994 5.96148 101.277 5.80328C101.589 5.76815 101.904 5.80119 102.202 5.90013C102.499 5.99907 102.772 6.16154 103 6.37626C103.734 7.12695 104.161 8.12458 104.197 9.17363C104.391 11.4164 103.205 13.5047 101.752 13.5047ZM114.276 7.71707C112.53 7.71707 111.349 5.62772 111.568 3.38403C111.594 2.85329 111.725 2.33291 111.952 1.85283C112.18 1.37275 112.501 0.942441 112.895 0.58666C113.16 0.368869 113.465 0.20622 113.793 0.108308C114.121 0.0103967 114.466 -0.0207948 114.806 0.0165741C116.223 0.17477 117.535 1.59371 117.301 3.99849C117.226 5.20212 116.687 6.32993 115.799 7.14506C115.373 7.50641 114.834 7.70859 114.276 7.71707ZM119.308 13.5047C117.489 13.5047 116.581 11.4154 116.786 9.17171C116.826 8.1159 117.268 7.11537 118.021 6.37433C118.26 6.15804 118.543 5.9951 118.85 5.89632C119.157 5.79753 119.481 5.76516 119.802 5.80135C121.121 5.95955 122.344 7.37849 122.126 9.78327C122.065 10.9692 121.566 12.0904 120.726 12.9298C120.34 13.2885 119.835 13.4931 119.308 13.5047ZM114.158 23.1509C113.287 23.1663 112.43 22.9395 111.681 22.4959C111.348 22.2927 110.965 22.1852 110.575 22.1852C110.185 22.1852 109.803 22.2927 109.47 22.4959C106.482 24.2843 102.762 22.3676 102.858 18.1667C102.858 13.7787 107.206 9.64629 110.575 9.64629C113.945 9.64629 118.292 13.7787 118.292 18.1667C118.292 21.1011 116.593 23.1509 114.158 23.1509ZM110.575 19.2924C111.446 19.277 112.303 19.5037 113.052 19.9474C114.96 21.0403 115.415 19.1178 115.398 18.1667C115.398 15.3211 112.346 12.5401 110.575 12.5401C108.804 12.5401 105.752 15.3211 105.752 18.1667C105.73 19.1033 106.198 21.047 108.098 19.9474C108.847 19.5037 109.705 19.277 110.575 19.2924Z" fill="#9156A2"/>
</g>
<defs>
<clipPath id="clip0_950_2774">
<rect width="23.1507" height="23.1507" fill="white" transform="translate(99)"/>
</clipPath>
</defs>
</svg>
