<svg width="111" height="111" viewBox="0 0 111 111" fill="none" xmlns="http://www.w3.org/2000/svg">
<circle cx="55.5" cy="55.5" r="55.5" fill="#F3F3F3"/>
<path d="M88.7467 62.4597C87.0784 60.7917 84.3645 60.7917 82.6962 62.4597L73.5535 71.6026H72.2157C72.6241 70.9472 72.8602 70.1741 72.8602 69.3466C72.8602 68.2033 72.4152 67.1286 71.6081 66.3215C70.8014 65.5131 69.7271 65.0678 68.5828 65.0678H66.5788C66.0205 65.0678 65.5681 65.5204 65.5681 66.0786C65.5681 66.6368 66.0205 67.0893 66.5788 67.0893H68.5828C69.1863 67.0893 69.7525 67.3237 70.178 67.7502C70.6041 68.1763 70.8388 68.7433 70.8388 69.3466C70.8388 70.5904 69.8271 71.6022 68.5833 71.6026C68.5831 71.6026 68.5828 71.6026 68.5826 71.6026H56.875C56.607 71.6026 56.35 71.7091 56.1604 71.8987L54.7309 73.3281C54.336 73.7229 54.336 74.3627 54.7308 74.7575C54.9282 74.9549 55.1868 75.0535 55.4456 75.0535C55.7042 75.0535 55.9629 74.9549 56.1602 74.7575L57.2937 73.6241H73.9721C74.2401 73.6241 74.4971 73.5176 74.6869 73.328L84.1258 63.889C85.0057 63.0091 86.4376 63.0091 87.3178 63.8894C87.7439 64.315 87.9785 64.8813 87.9785 65.4837C87.9785 66.0864 87.7438 66.6531 87.3174 67.0795L77.1587 77.238C76.4644 77.9324 75.6487 78.4684 74.7346 78.8309L63.5727 83.2527C62.6022 83.638 61.5351 83.8071 60.4888 83.7427L41.5504 82.5543V66.5682L43.4301 65.0834C45.1155 63.746 47.2634 63.0002 49.4167 63.0059C51.6252 63.0059 53.7861 63.7715 55.5009 65.1616L57.6005 66.8637C57.7805 67.0096 58.0052 67.0893 58.237 67.0893H61.8622C62.4205 67.0893 62.8729 66.6368 62.8729 66.0786C62.8729 65.5204 62.4205 65.0678 61.8622 65.0678H58.5952L56.7738 63.5913C54.6999 61.9103 52.0871 60.9844 49.4167 60.9844C46.8127 60.9778 44.2158 61.8794 42.1773 63.4971L40.1885 65.0681H36.6491V64.7174C36.6491 62.659 34.9745 60.9844 32.9161 60.9844H29.9688C29.4105 60.9844 28.958 61.437 28.958 61.9952C28.958 62.5534 29.4105 63.0059 29.9688 63.0059H32.9161C33.8599 63.0059 34.6276 63.7737 34.6276 64.7174V82.493H23.0215V63.0059H25.2519C25.8102 63.0059 26.2626 62.5534 26.2626 61.9952C26.2626 61.437 25.8102 60.9844 25.2519 60.9844H22.0107C21.4524 60.9844 21 61.437 21 61.9952V83.5037C21 84.0619 21.4524 84.5145 22.0107 84.5145L40.513 84.5148L60.3632 85.7604C60.5495 85.7719 60.7363 85.7777 60.9231 85.7777C62.0826 85.7777 63.2459 85.5573 64.3177 85.132L75.4794 80.7102C76.6516 80.2453 77.6977 79.5579 78.5881 78.6674L88.7467 68.5089C89.5547 67.7007 89.9999 66.6264 89.9999 65.4838C90 64.341 89.5547 63.2668 88.7467 62.4597ZM39.5288 67.0896V82.4933H36.6489V67.0896H39.5288Z" fill="#9156A2"/>
<path d="M29.3685 75.1335C31.1269 75.1335 32.5575 73.703 32.5575 71.9447C32.5575 70.1864 31.1269 68.7559 29.3685 68.7559C27.6102 68.7559 26.1797 70.1864 26.1797 71.9447C26.1797 73.703 27.6104 75.1335 29.3685 75.1335ZM29.3685 70.7772C30.0122 70.7772 30.536 71.3009 30.536 71.9447C30.536 72.5883 30.0122 73.1122 29.3685 73.1122C28.7249 73.1122 28.2012 72.5885 28.2012 71.9447C28.2012 71.301 28.7249 70.7772 29.3685 70.7772Z" fill="#9156A2"/>
<path d="M35.332 45.8588C35.332 52.3102 40.5806 57.5588 47.0321 57.5588C50.7737 57.5588 54.0262 56.201 56.6983 53.5238C57.2033 53.0187 57.6856 52.4675 58.1557 51.8572C58.5934 52.4243 59.0763 52.9867 59.6119 53.5233C62.2849 56.2013 65.5372 57.5592 69.278 57.5592C81.38 57.4293 85.4277 41.4528 74.8593 35.5781C74.3686 35.3111 73.7552 35.4921 73.4882 35.9824C73.2214 36.4727 73.4022 37.0865 73.8925 37.3535C77.0163 39.0544 78.9566 42.3135 78.9566 45.859C78.9566 45.8607 78.9569 45.8623 78.9569 45.8641C78.9539 51.1986 74.6132 55.5377 69.278 55.5377C66.0934 55.5377 63.3227 54.3795 61.0428 52.0952C59.1752 50.2242 57.963 47.9112 57.1603 46.3796C55.6013 43.4047 52.992 38.4258 47.0325 38.4258C42.934 38.4258 39.5998 41.7602 39.5998 45.8587C39.5998 49.9568 42.9339 53.291 47.0321 53.291C51.6313 53.291 54.2481 50.2496 55.7016 47.9477C56.0473 48.5974 56.4552 49.3347 56.9387 50.1041C56.3986 50.8581 55.8488 51.5144 55.2682 52.095C52.9885 54.3791 50.2176 55.5372 47.0321 55.5372C41.6954 55.5372 37.3535 51.1954 37.3535 45.8587C37.3535 40.5217 41.6955 36.1797 47.0325 36.1797C50.2172 36.1797 52.9878 37.3379 55.2678 39.622C57.1356 41.4934 58.3478 43.8065 59.1501 45.3376C60.7091 48.3125 63.3185 53.2916 69.278 53.2916C73.3765 53.2916 76.7107 49.9572 76.7107 45.8588C76.7107 41.7606 73.3766 38.4264 69.2784 38.4264C64.6778 38.4264 62.062 41.4676 60.6091 43.7702C60.2635 43.1205 59.8555 42.3829 59.3719 41.6136C59.9122 40.8586 60.4619 40.202 61.0419 39.622C63.3222 37.3381 66.0931 36.1802 69.2779 36.1802C69.4457 36.1802 69.6176 36.1847 69.8036 36.1938C70.3591 36.2221 70.8352 35.7916 70.8627 35.2339C70.8901 34.6764 70.4604 34.2021 69.9028 34.1748C69.6835 34.164 69.4789 34.1587 69.2777 34.1587C65.5366 34.1587 62.2845 35.5162 59.6118 38.1931C59.1071 38.6979 58.6248 39.2494 58.1546 39.8601C57.7169 39.293 57.234 38.7307 56.6984 38.194C54.0254 35.5161 50.7732 34.1582 47.0324 34.1582C40.5809 34.1582 35.332 39.4072 35.332 45.8588ZM47.0321 51.2697C44.0485 51.2697 41.6213 48.8424 41.6213 45.8588C41.6213 42.875 44.0488 40.4474 47.0325 40.4474C51.0081 40.4474 53.1126 43.2448 54.5851 45.859C52.9615 48.7281 50.8755 51.2697 47.0321 51.2697ZM69.2784 40.4478C72.262 40.4478 74.6893 42.8752 74.6893 45.8588C74.6893 48.8427 72.2617 51.2702 69.278 51.2702C65.3028 51.2702 63.1982 48.4733 61.7259 45.8598C63.3482 42.9897 65.4333 40.4478 69.2784 40.4478Z" fill="#9156A2"/>
<path d="M30.4482 55.6727H31.0711V56.2956C31.0711 56.8538 31.5235 57.3063 32.0819 57.3063C32.6402 57.3063 33.0926 56.8538 33.0926 56.2956V55.6727H33.7155C34.2738 55.6727 34.7262 55.2201 34.7262 54.6619C34.7262 54.1037 34.2738 53.6512 33.7155 53.6512H33.0926V53.0283C33.0926 52.4701 32.6402 52.0176 32.0819 52.0176C31.5235 52.0176 31.0711 52.4701 31.0711 53.0283V53.6512H30.4482C29.8899 53.6512 29.4375 54.1037 29.4375 54.6619C29.4375 55.2201 29.89 55.6727 30.4482 55.6727Z" fill="#9156A2"/>
<path d="M78.917 33.5321H79.5399V34.155C79.5399 34.7132 79.9923 35.1657 80.5506 35.1657C81.109 35.1657 81.5614 34.7132 81.5614 34.155V33.5321H82.1842C82.7426 33.5321 83.195 33.0795 83.195 32.5213C83.195 31.9631 82.7426 31.5106 82.1842 31.5106H81.5614V30.8877C81.5614 30.3295 81.109 29.877 80.5506 29.877C79.9923 29.877 79.5399 30.3295 79.5399 30.8877V31.5106H78.917C78.3587 31.5106 77.9062 31.9631 77.9062 32.5213C77.9062 33.0795 78.3587 33.5321 78.917 33.5321Z" fill="#9156A2"/>
<path d="M39.1709 28.8719H39.7938V29.4948C39.7938 30.053 40.2462 30.5055 40.8045 30.5055C41.3629 30.5055 41.8153 30.053 41.8153 29.4948V28.8719H42.4382C42.9965 28.8719 43.4489 28.4194 43.4489 27.8612C43.4489 27.303 42.9965 26.8504 42.4382 26.8504H41.8153V26.2275C41.8153 25.6693 41.3629 25.2168 40.8045 25.2168C40.2462 25.2168 39.7938 25.6693 39.7938 26.2275V26.8504H39.1709C38.6126 26.8504 38.1602 27.303 38.1602 27.8612C38.1602 28.4194 38.6127 28.8719 39.1709 28.8719Z" fill="#9156A2"/>
<path d="M82.2969 53.0272C82.2969 53.5854 82.7493 54.0379 83.3076 54.0379H83.9304V54.6608C83.9304 55.219 84.3828 55.6716 84.9411 55.6716C85.4994 55.6716 85.9519 55.219 85.9519 54.6608V54.0379H86.5747C87.1331 54.0379 87.5855 53.5854 87.5855 53.0272C87.5855 52.469 87.1331 52.0164 86.5747 52.0164H85.9519V51.3936C85.9519 50.8354 85.4994 50.3828 84.9411 50.3828C84.3828 50.3828 83.9304 50.8354 83.9304 51.3936V52.0164H83.3076C82.7493 52.0166 82.2969 52.469 82.2969 53.0272Z" fill="#9156A2"/>
</svg>
