<svg width="36" height="30" viewBox="0 0 36 30" fill="none" xmlns="http://www.w3.org/2000/svg">
<path d="M33.4668 14.3485C34.8751 13.6305 35.7647 12.1626 35.7647 10.5573V10.1219C35.7647 7.78042 33.9038 5.88281 31.6076 5.88281C29.8183 5.88281 28.2301 7.05044 27.664 8.78108C27.2348 10.0935 27.0158 11.3534 25.5343 11.3534H10.2298C8.69976 11.3534 8.46506 9.898 8.10015 8.78108C7.53462 7.05044 5.94588 5.88281 4.15709 5.88281C1.86088 5.88281 0 7.78042 0 10.1219V10.5573C0 12.1626 0.889647 13.6305 2.29788 14.3485C2.82485 14.6169 2.82485 15.384 2.29788 15.6524C0.889647 16.3704 0 17.8383 0 19.4436V19.879C0 22.2205 1.86088 24.1181 4.15653 24.1181C5.94588 24.1181 7.53406 22.9505 8.10015 21.2198C8.52932 19.9075 8.74838 18.6475 10.2298 18.6475H25.5343C27.0644 18.6475 27.2991 20.1029 27.664 21.2198C28.2301 22.9505 29.8188 24.1181 31.6076 24.1181C33.9033 24.1181 35.7641 22.2205 35.7641 19.879V19.4436C35.7641 17.8378 34.8745 16.3704 33.4663 15.6524C32.9399 15.384 32.9399 14.6169 33.4668 14.3485Z" fill="#FFD401"/>
</svg>
