<svg width="21" height="21" viewBox="0 0 21 21" fill="none" xmlns="http://www.w3.org/2000/svg">
<path d="M6.9043 10.612C7.75172 12.3619 9.16678 13.7734 10.9189 14.6163C11.0482 14.6775 11.1911 14.704 11.3337 14.6931C11.4763 14.6823 11.6136 14.6345 11.7321 14.5545L14.3056 12.8354C14.4193 12.7583 14.5507 12.7113 14.6875 12.6987C14.8243 12.6861 14.9621 12.7083 15.088 12.7634L19.9055 14.8325C20.0702 14.901 20.2077 15.0217 20.297 15.1761C20.3863 15.3305 20.4223 15.51 20.3996 15.6869C20.2469 16.8786 19.6652 17.9739 18.7633 18.7678C17.8615 19.5617 16.7012 19.9997 15.4997 20C11.7868 20 8.22588 18.525 5.60042 15.8996C2.97497 13.2741 1.5 9.71324 1.5 6.00028C1.50027 4.79877 1.93833 3.63853 2.73221 2.73665C3.52609 1.83478 4.62138 1.25307 5.81315 1.10038C5.99004 1.07766 6.16949 1.11371 6.32388 1.203C6.47826 1.29228 6.59901 1.42984 6.66754 1.59449L8.73662 6.42233C8.79043 6.54622 8.81294 6.68143 8.80216 6.81607C8.79139 6.9507 8.74767 7.08062 8.67486 7.19437L6.95577 9.80903C6.87924 9.92729 6.83432 10.0632 6.82531 10.2038C6.8163 10.3444 6.8435 10.4849 6.9043 10.612Z" stroke="#9156A2" stroke-width="1.13438" stroke-linecap="round" stroke-linejoin="round"/>
</svg>
