<svg width="21" height="21" viewBox="0 0 21 21" fill="none" xmlns="http://www.w3.org/2000/svg">
<path d="M4.33734 3.03603C5.98566 1.64797 8.06775 0.867188 10.4101 0.867188C15.7021 0.867188 19.953 5.11812 19.953 10.4101C19.953 15.7021 15.7021 19.953 10.4101 19.953C5.11812 19.953 0.867188 15.7021 0.867188 10.4101C0.867188 9.88958 1.2142 9.54256 1.73472 9.54256C2.25525 9.54256 2.60226 9.88958 2.60226 10.4101C2.60226 14.7478 6.07241 18.2179 10.4101 18.2179C14.7478 18.2179 18.2179 14.7478 18.2179 10.4101C18.2179 6.07241 14.7478 2.60226 10.4101 2.60226C8.58827 2.60226 6.8532 3.20954 5.46514 4.33734H6.93995C7.46047 4.33734 7.80749 4.68435 7.80749 5.20487C7.80749 5.7254 7.46047 6.07241 6.93995 6.07241H3.4698C2.94928 6.07241 2.60226 5.7254 2.60226 5.20487V1.73472C2.60226 1.2142 2.94928 0.867188 3.4698 0.867188C3.99032 0.867188 4.33734 1.2142 4.33734 1.73472V3.03603ZM11.2776 6.93995C11.2776 6.41943 10.9306 6.07241 10.4101 6.07241C9.88958 6.07241 9.54256 6.41943 9.54256 6.93995V7.0267C8.58827 7.20021 7.80749 8.06775 7.80749 9.10879C7.80749 10.3233 8.76178 11.2776 9.97633 11.2776H10.8439C11.1041 11.2776 11.2776 11.4511 11.2776 11.7114C11.2776 11.9717 11.1041 12.1452 10.8439 12.1452H10.4969C9.97633 12.1452 9.54256 12.0584 9.10879 11.7982C8.67502 11.6247 8.1545 11.7982 7.98099 12.1452C7.80749 12.5789 7.98099 13.0995 8.32801 13.273C8.67502 13.4465 9.10879 13.62 9.54256 13.7067V13.8802C9.54256 14.4008 9.88958 14.7478 10.4101 14.7478C10.9306 14.7478 11.2776 14.4008 11.2776 13.8802V13.7935C12.2319 13.62 13.0127 12.7524 13.0127 11.7114C13.0127 10.4969 12.0584 9.54256 10.8439 9.54256H9.97633C9.71607 9.54256 9.54256 9.36905 9.54256 9.10879C9.54256 8.84853 9.71607 8.67502 9.97633 8.67502H10.3233C10.8439 8.67502 11.2776 8.76178 11.7114 9.02204C12.1452 9.19555 12.6657 9.02204 12.8392 8.67502C13.0127 8.24125 12.8392 7.72073 12.4922 7.54722C12.1452 7.28696 11.7114 7.11346 11.2776 7.0267V6.93995Z" fill="#61C7CB"/>
</svg>
