<svg width="111" height="111" viewBox="0 0 111 111" fill="none" xmlns="http://www.w3.org/2000/svg">
<circle cx="55.5" cy="55.5" r="55.5" fill="#F3F3F3"/>
<path d="M57.1875 26.5625V33.125H39.6875V26.5625C39.6875 25.355 40.6675 24.375 41.875 24.375H55C56.2075 24.375 57.1875 25.355 57.1875 26.5625Z" fill="#9156A2"/>
<path d="M68.125 85.625H28.75C26.3372 85.625 24.375 83.6628 24.375 81.25V33.125C24.375 30.7122 26.3372 28.75 28.75 28.75H36.4062V33.125H28.75V81.25H68.125V33.125H60.4688V28.75H68.125C70.5378 28.75 72.5 30.7122 72.5 33.125V81.25C72.5 83.6628 70.5378 85.625 68.125 85.625Z" fill="#9156A2"/>
<path d="M56.0937 56.75C56.0937 58.2922 55.0066 59.375 53.5409 59.375C52.2044 59.375 50.8678 58.6553 49.8987 57.9684C49.0128 57.3406 47.8622 57.3406 46.9762 57.9684C46.0072 58.6553 44.6706 59.375 43.3341 59.375C41.8684 59.375 40.7812 58.2922 40.7812 56.75C40.7812 51.5 44.7997 46.25 48.4375 46.25C52.0753 46.25 56.0937 51.5 56.0937 56.75Z" fill="#F3D44C"/>
<path d="M45.5282 43.9314C44.1063 44.3274 42.5423 43.0499 42.0348 41.0767C41.5273 39.1036 42.2688 37.1808 43.6907 36.7849C45.1126 36.3889 46.6767 37.6664 47.1842 39.6395C47.6917 41.6127 46.9501 43.5355 45.5282 43.9314Z" fill="#F3D44C"/>
<path d="M40.0597 49.0935C38.6379 49.4895 37.0738 48.212 36.5663 46.2388C36.0588 44.2657 36.7982 42.3429 38.22 41.947C39.6419 41.551 41.206 42.8285 41.7135 44.8017C42.2232 46.777 41.4816 48.6976 40.0597 49.0935Z" fill="#F3D44C"/>
<path d="M49.6913 39.6402C50.1988 37.667 51.7629 36.3874 53.1847 36.7855C54.6066 37.1814 55.3482 39.1042 54.8385 41.0774C54.331 43.0505 52.7669 44.3302 51.345 43.932C49.9232 43.5339 49.1838 41.6155 49.6913 39.6402Z" fill="#F3D44C"/>
<path d="M55.16 44.8023C55.6675 42.8292 57.2316 41.5495 58.6535 41.9476C60.0754 42.3435 60.8169 44.2663 60.3072 46.2395C59.7997 48.2126 58.2357 49.4923 56.8138 49.0942C55.3919 48.696 54.6525 46.7776 55.16 44.8023Z" fill="#F3D44C"/>
<path d="M38.5938 68.125H34.2188C33.615 68.125 33.125 67.635 33.125 67.0312V64.8438C33.125 64.24 33.615 63.75 34.2188 63.75H38.5938C39.1975 63.75 39.6875 64.24 39.6875 64.8438V67.0312C39.6875 67.635 39.1975 68.125 38.5938 68.125Z" fill="#61C7CB"/>
<path d="M38.5938 76.875H34.2188C33.615 76.875 33.125 76.385 33.125 75.7812V73.5938C33.125 72.99 33.615 72.5 34.2188 72.5H38.5938C39.1975 72.5 39.6875 72.99 39.6875 73.5938V75.7812C39.6875 76.385 39.1975 76.875 38.5938 76.875Z" fill="#61C7CB"/>
<path d="M62.6562 68.125H45.1562C44.5525 68.125 44.0625 67.635 44.0625 67.0312V64.8437C44.0625 64.24 44.5525 63.75 45.1562 63.75H62.6562C63.26 63.75 63.75 64.24 63.75 64.8437V67.0312C63.75 67.635 63.26 68.125 62.6562 68.125Z" fill="#9156A2"/>
<path d="M62.6562 76.875H45.1562C44.5525 76.875 44.0625 76.385 44.0625 75.7812V73.5938C44.0625 72.99 44.5525 72.5 45.1562 72.5H62.6562C63.26 72.5 63.75 72.99 63.75 73.5938V75.7812C63.75 76.385 63.26 76.875 62.6562 76.875Z" fill="#9156A2"/>
<path d="M79.0625 37.5V32.0312C79.0625 30.22 80.5325 28.75 82.3437 28.75C84.155 28.75 85.625 30.22 85.625 32.0312V37.5H79.0625Z" fill="#9156A2"/>
<path d="M85.625 40.7812V79.0625L82.6347 85.4391C82.5187 85.6863 82.1666 85.6863 82.0506 85.4391L79.0625 79.0625V40.7812H85.625Z" fill="#9156A2"/>
</svg>
