<svg width="32" height="32" viewBox="0 0 32 32" fill="none" xmlns="http://www.w3.org/2000/svg">
<path d="M9.3474 0.167969H22.6474C27.7141 0.167969 31.8307 4.28464 31.8307 9.3513V22.6513C31.8307 25.0869 30.8632 27.4227 29.141 29.1449C27.4188 30.8671 25.083 31.8346 22.6474 31.8346H9.3474C4.28073 31.8346 0.164062 27.718 0.164062 22.6513V9.3513C0.164063 6.91573 1.13159 4.57991 2.8538 2.8577C4.57601 1.1355 6.91182 0.167969 9.3474 0.167969ZM9.03073 3.33464C7.51899 3.33464 6.06918 3.93517 5.00022 5.00413C3.93126 6.07308 3.33073 7.5229 3.33073 9.03463V22.968C3.33073 26.1188 5.8799 28.668 9.03073 28.668H22.9641C24.4758 28.668 25.9256 28.0674 26.9946 26.9985C28.0635 25.9295 28.6641 24.4797 28.6641 22.968V9.03463C28.6641 5.8838 26.1149 3.33464 22.9641 3.33464H9.03073ZM24.3099 5.70964C24.8348 5.70964 25.3382 5.91815 25.7094 6.28932C26.0805 6.66049 26.2891 7.16389 26.2891 7.6888C26.2891 8.21371 26.0805 8.71712 25.7094 9.08828C25.3382 9.45945 24.8348 9.66797 24.3099 9.66797C23.785 9.66797 23.2816 9.45945 22.9104 9.08828C22.5392 8.71712 22.3307 8.21371 22.3307 7.6888C22.3307 7.16389 22.5392 6.66049 22.9104 6.28932C23.2816 5.91815 23.785 5.70964 24.3099 5.70964ZM15.9974 8.08463C18.097 8.08464 20.1107 8.91871 21.5953 10.4034C23.08 11.888 23.9141 13.9017 23.9141 16.0013C23.9141 18.1009 23.08 20.1146 21.5953 21.5992C20.1107 23.0839 18.097 23.918 15.9974 23.918C13.8978 23.918 11.8841 23.0839 10.3995 21.5992C8.9148 20.1146 8.08073 18.1009 8.08073 16.0013C8.08073 13.9017 8.9148 11.888 10.3995 10.4034C11.8841 8.91871 13.8978 8.08464 15.9974 8.08463ZM15.9974 11.2513C14.7376 11.2513 13.5294 11.7517 12.6386 12.6425C11.7478 13.5333 11.2474 14.7415 11.2474 16.0013C11.2474 17.2611 11.7478 18.4693 12.6386 19.3601C13.5294 20.2509 14.7376 20.7513 15.9974 20.7513C17.2572 20.7513 18.4654 20.2509 19.3562 19.3601C20.247 18.4693 20.7474 17.2611 20.7474 16.0013C20.7474 14.7415 20.247 13.5333 19.3562 12.6425C18.4654 11.7517 17.2572 11.2513 15.9974 11.2513Z" fill="white"/>
</svg>
