<svg width="111" height="111" viewBox="0 0 111 111" fill="none" xmlns="http://www.w3.org/2000/svg">
<circle cx="55.5" cy="55.5" r="55.5" fill="#F3F3F3"/>
<path d="M60.335 85.2305C55.2827 85.2305 50.9792 83.4664 47.4246 79.9381C43.87 76.4099 42.0926 72.1175 42.0926 67.0608V65.3529C37.9081 64.9631 34.3843 63.2012 31.5212 60.0672C28.6581 56.9376 27.2266 53.2123 27.2266 48.8912V30.7215H37.1373V27.418H40.4408V37.3287H37.1373V34.0251H30.5301V48.8912C30.5301 52.5251 31.824 55.636 34.4118 58.2238C36.9996 60.8116 40.1105 62.1055 43.7444 62.1055C47.3784 62.1055 50.4892 60.8116 53.077 58.2238C55.6648 55.636 56.9587 52.5251 56.9587 48.8912V34.0251H50.3516V37.3287H47.048V27.418H50.3516V30.7215H60.2623V48.8912C60.2623 53.2123 58.8307 56.9387 55.9676 60.0705C53.1045 63.2023 49.5807 64.9631 45.3962 65.3529V67.0608C45.3962 71.1903 46.8476 74.7009 49.7503 77.5926C52.6575 80.4821 56.1835 81.9269 60.3284 81.9269C64.4578 81.9269 67.9673 80.4821 70.8568 77.5926C73.7464 74.7031 75.1922 71.1925 75.1944 67.0608V61.9073C73.6484 61.5439 72.371 60.7312 71.3623 59.4692C70.358 58.2073 69.8559 56.757 69.8559 55.1184C69.8559 53.1759 70.5364 51.5252 71.8975 50.1664C73.2563 48.8075 74.9081 48.1281 76.8528 48.1281C78.7975 48.1281 80.4471 48.8075 81.8016 50.1664C83.156 51.5252 83.8333 53.1759 83.8333 55.1184C83.8333 56.757 83.33 58.2073 82.3235 59.4692C81.317 60.7312 80.0419 61.5439 78.498 61.9073V67.0608C78.498 72.1175 76.7339 76.4099 73.2057 79.9381C69.6775 83.4664 65.3872 85.2305 60.335 85.2305ZM76.8462 58.8019C77.8659 58.8019 78.7348 58.4429 79.4527 57.7249C80.1707 57.007 80.5297 56.137 80.5297 55.1151C80.5297 54.0954 80.1707 53.2266 79.4527 52.5086C78.7348 51.7906 77.8648 51.4316 76.8429 51.4316C75.8232 51.4316 74.9544 51.7906 74.2364 52.5086C73.5184 53.2266 73.1594 54.0965 73.1594 55.1184C73.1594 56.1381 73.5184 57.007 74.2364 57.7249C74.9544 58.4429 75.8243 58.8019 76.8462 58.8019Z" fill="#9156A2"/>
</svg>
