<svg width="31" height="31" viewBox="0 0 31 31" fill="none" xmlns="http://www.w3.org/2000/svg">
<path d="M26.7407 0.75C27.6273 0.75 28.4775 1.10216 29.1043 1.72902C29.7312 2.35588 30.0833 3.20608 30.0833 4.09259V27.4907C30.0833 28.3773 29.7312 29.2275 29.1043 29.8543C28.4775 30.4812 27.6273 30.8333 26.7407 30.8333H3.34259C2.45608 30.8333 1.60588 30.4812 0.979023 29.8543C0.352165 29.2275 0 28.3773 0 27.4907V4.09259C0 3.20608 0.352165 2.35588 0.979023 1.72902C1.60588 1.10216 2.45608 0.75 3.34259 0.75H26.7407ZM25.9051 26.6551V17.7972C25.9051 16.3522 25.3311 14.9664 24.3093 13.9446C23.2875 12.9228 21.9017 12.3488 20.4567 12.3488C19.0361 12.3488 17.3815 13.2179 16.5793 14.5215V12.6663H11.9163V26.6551H16.5793V18.4156C16.5793 17.1287 17.6155 16.0758 18.9024 16.0758C19.5229 16.0758 20.1181 16.3223 20.5569 16.7611C20.9957 17.1999 21.2422 17.795 21.2422 18.4156V26.6551H25.9051ZM6.48463 10.0424C7.2293 10.0424 7.94347 9.74659 8.47003 9.22003C8.99659 8.69347 9.29241 7.9793 9.29241 7.23463C9.29241 5.68032 8.03894 4.41014 6.48463 4.41014C5.73553 4.41014 5.01711 4.70772 4.48741 5.23741C3.95772 5.76711 3.66014 6.48553 3.66014 7.23463C3.66014 8.78894 4.93032 10.0424 6.48463 10.0424ZM8.80773 26.6551V12.6663H4.17824V26.6551H8.80773Z" fill="white"/>
</svg>
