<svg width="22" height="27" viewBox="0 0 22 27" fill="none" xmlns="http://www.w3.org/2000/svg">
<path d="M10.7162 13.4323C12.2163 13.4323 13.4323 12.2163 13.4323 10.7162C13.4323 9.21607 12.2163 8 10.7162 8C9.21607 8 8 9.21607 8 10.7162C8 12.2163 9.21607 13.4323 10.7162 13.4323Z" stroke="#9156A2" stroke-width="1.14079" stroke-linecap="round" stroke-linejoin="round"/>
<path d="M20.5476 10.6154C20.5476 19.2692 11.0238 26 11.0238 26C11.0238 26 1.5 19.2692 1.5 10.6154C1.5 8.06523 2.5034 5.61952 4.28946 3.81628C6.07552 2.01305 8.49794 1 11.0238 1C13.5497 1 15.9721 2.01305 17.7582 3.81628C19.5442 5.61952 20.5476 8.06523 20.5476 10.6154V10.6154Z" stroke="#9156A2" stroke-width="1.14079" stroke-linecap="round" stroke-linejoin="round"/>
</svg>
