<svg width="45" height="50" viewBox="0 0 45 50" fill="none" xmlns="http://www.w3.org/2000/svg">
<g filter="url(#filter0_d_330_449)">
<path d="M22.5 20.625C24.0533 20.625 25.3125 19.3658 25.3125 17.8125C25.3125 16.2592 24.0533 15 22.5 15C20.9467 15 19.6875 16.2592 19.6875 17.8125C19.6875 19.3658 20.9467 20.625 22.5 20.625Z" fill="white"/>
<path d="M22.5 3.75C18.5476 3.7498 14.7549 5.30955 11.9461 8.09023C9.13731 10.8709 7.53952 14.6478 7.5 18.6C7.5 28.875 20.7188 40.3125 21.2813 40.8C21.6209 41.0905 22.0531 41.2501 22.5 41.2501C22.9469 41.2501 23.3791 41.0905 23.7188 40.8C24.375 40.3125 37.5 28.875 37.5 18.6C37.4605 14.6478 35.8627 10.8709 33.0539 8.09023C30.2451 5.30955 26.4524 3.7498 22.5 3.75ZM22.5 24.375C21.2021 24.375 19.9333 23.9901 18.8541 23.269C17.7749 22.5479 16.9337 21.523 16.437 20.3239C15.9403 19.1247 15.8104 17.8052 16.0636 16.5322C16.3168 15.2592 16.9418 14.0899 17.8596 13.1721C18.7774 12.2543 19.9467 11.6293 21.2197 11.3761C22.4927 11.1229 23.8122 11.2528 25.0114 11.7495C26.2105 12.2462 27.2354 13.0874 27.9565 14.1666C28.6776 15.2458 29.0625 16.5146 29.0625 17.8125C29.0625 19.553 28.3711 21.2222 27.1404 22.4529C25.9097 23.6836 24.2405 24.375 22.5 24.375Z" fill="white"/>
</g>
<defs>
<filter id="filter0_d_330_449" x="-4" y="0" width="53" height="53" filterUnits="userSpaceOnUse" color-interpolation-filters="sRGB">
<feFlood flood-opacity="0" result="BackgroundImageFix"/>
<feColorMatrix in="SourceAlpha" type="matrix" values="0 0 0 0 0 0 0 0 0 0 0 0 0 0 0 0 0 0 127 0" result="hardAlpha"/>
<feOffset dy="4"/>
<feGaussianBlur stdDeviation="2"/>
<feComposite in2="hardAlpha" operator="out"/>
<feColorMatrix type="matrix" values="0 0 0 0 0 0 0 0 0 0 0 0 0 0 0 0 0 0 0.25 0"/>
<feBlend mode="normal" in2="BackgroundImageFix" result="effect1_dropShadow_330_449"/>
<feBlend mode="normal" in="SourceGraphic" in2="effect1_dropShadow_330_449" result="shape"/>
</filter>
</defs>
</svg>
