<svg width="23" height="23" viewBox="0 0 23 23" fill="none" xmlns="http://www.w3.org/2000/svg">
<g clip-path="url(#clip0_1863_4872)">
<path fill-rule="evenodd" clip-rule="evenodd" d="M8.04176 14.8341C11.6054 18.3977 14.9077 18.7879 15.8772 18.8241C17.0487 18.8667 18.2443 17.9102 18.7615 16.9306C17.9366 15.963 16.8624 15.2122 15.6862 14.3985C14.992 15.0917 14.1366 16.38 12.9975 15.9185C12.3497 15.658 10.75 14.9212 9.35229 13.5226C7.95371 12.125 7.21781 10.5253 6.95551 9.87833C6.49395 8.73741 7.78595 7.88009 8.48015 7.18589C7.66639 5.99029 6.92863 4.88828 5.96288 4.10511C4.96932 4.62414 4.00727 5.81048 4.05083 6.99775C4.08698 7.96721 4.47717 11.2695 8.04176 14.8341ZM15.8086 20.6768C14.474 20.6277 10.6916 20.105 6.73029 16.1446C2.76995 12.1834 2.24815 8.40189 2.1981 7.06633C2.12395 5.03102 3.68288 3.05409 5.48371 2.28204C5.70056 2.1884 5.93804 2.15275 6.17283 2.17858C6.40763 2.20442 6.63167 2.29085 6.82298 2.42941C8.31332 3.51658 9.34117 5.16355 10.2244 6.4537C10.4082 6.72197 10.4924 7.04604 10.4624 7.36982C10.4324 7.6936 10.2902 7.99672 10.0604 8.22672L8.80361 9.48443C9.09556 10.1286 9.68966 11.2389 10.6628 12.2121C11.636 13.1853 12.7463 13.7794 13.3914 14.0713L14.6473 12.8145C14.8782 12.5842 15.1825 12.4422 15.5074 12.4132C15.8322 12.3843 16.1569 12.4702 16.4249 12.656C17.741 13.568 19.287 14.5811 20.414 16.0241C20.5638 16.2168 20.6591 16.4462 20.6899 16.6883C20.7207 16.9305 20.6859 17.1764 20.5892 17.4005C19.8134 19.2106 17.8504 20.7519 15.8086 20.6768Z" fill="#F3D44C"/>
</g>
<defs>
<clipPath id="clip0_1863_4872">
<rect width="22.2439" height="22.2439" fill="white" transform="translate(0.341797 0.316895)"/>
</clipPath>
</defs>
</svg>
