<svg width="16" height="16" viewBox="0 0 16 16" fill="none" xmlns="http://www.w3.org/2000/svg">
<g clip-path="url(#clip0_3102_251)">
<path d="M5.44372 5.33473C5.05755 5.32869 4.68546 5.18871 4.39106 4.93873C3.77696 4.37555 3.40493 3.59636 3.35306 2.76473C3.19106 1.10273 4.09772 0.122066 5.07705 0.012733C5.31302 -0.0134293 5.55184 0.00814718 5.7793 0.0761783C6.00676 0.144209 6.2182 0.257305 6.40105 0.408733C6.67384 0.654622 6.89531 0.952017 7.05274 1.28381C7.21017 1.61561 7.30045 1.97525 7.31838 2.34207C7.46772 3.8914 6.64239 5.33473 5.44372 5.33473ZM1.90306 9.33473C1.54838 9.3263 1.20981 9.18497 0.954392 8.93873C0.389906 8.35098 0.0582156 7.57814 0.02106 6.76407C-0.125606 5.10207 0.691726 4.1214 1.57506 4.01207C1.79037 3.98778 2.00838 4.01062 2.21398 4.079C2.41958 4.14738 2.60785 4.25967 2.76572 4.40807C3.2728 4.92689 3.56785 5.61637 3.59306 6.3414C3.72706 7.8914 2.90706 9.33473 1.90306 9.33473ZM10.5584 5.33473C9.35172 5.33473 8.53572 3.89073 8.68705 2.34007C8.70498 1.97325 8.79526 1.61361 8.95269 1.28181C9.11012 0.950017 9.3316 0.652622 9.60438 0.406733C9.78706 0.256212 9.99803 0.143802 10.2249 0.0761327C10.4517 0.00846358 10.6898 -0.0130936 10.925 0.012733C11.9044 0.122066 12.811 1.10273 12.649 2.76473C12.5973 3.59659 12.2253 4.37605 11.611 4.9394C11.3165 5.18914 10.9445 5.32888 10.5584 5.33473ZM14.0364 9.33473C12.779 9.33473 12.1517 7.89073 12.293 6.34007C12.3211 5.61037 12.6265 4.91888 13.147 4.40673C13.3124 4.25725 13.5076 4.14464 13.7198 4.07637C13.932 4.00809 14.1562 3.98572 14.3777 4.01073C15.2897 4.12007 16.1344 5.10073 15.9837 6.76273C15.9416 7.58237 15.5969 8.35723 15.0164 8.9374C14.7493 9.18532 14.4007 9.32669 14.0364 9.33473ZM10.477 16.0014C9.87546 16.0121 9.28275 15.8553 8.76505 15.5487C8.53495 15.4083 8.27061 15.334 8.00105 15.334C7.73149 15.334 7.46715 15.4083 7.23705 15.5487C5.17172 16.7847 2.60106 15.4601 2.66772 12.5567C2.66772 9.52407 5.67239 6.66807 8.00105 6.66807C10.3297 6.66807 13.3344 9.52407 13.3344 12.5567C13.3344 14.5847 12.1597 16.0014 10.477 16.0014ZM8.00105 13.3347C8.60264 13.3241 9.19535 13.4808 9.71305 13.7874C11.0317 14.5427 11.3457 13.2141 11.3344 12.5567C11.3344 10.5901 9.22505 8.66807 8.00105 8.66807C6.77705 8.66807 4.66772 10.5901 4.66772 12.5567C4.65239 13.2041 4.97572 14.5474 6.28905 13.7874C6.80675 13.4808 7.39946 13.3241 8.00105 13.3347Z" fill="#9156A2"/>
</g>
<defs>
<clipPath id="clip0_3102_251">
<rect width="16" height="16" fill="white"/>
</clipPath>
</defs>
</svg>
