<svg width="94" height="94" viewBox="0 0 94 94" fill="none" xmlns="http://www.w3.org/2000/svg">
<path d="M86.2628 58.0885C85.6277 56.9326 84.5607 56.0942 83.2904 55.7385C82.0201 55.3829 80.6737 55.5353 79.5304 56.1958L59.1426 67.7172C59.4347 64.7067 57.4785 61.8358 54.4426 61.0991L33.6991 56.0307C31.3109 55.4464 28.8466 55.1542 26.395 55.1542H19.3577C18.8877 53.2996 17.2236 51.9277 15.2293 51.9277H8.0777C7.55689 51.9277 7.125 52.3596 7.125 52.8804V81.0042C7.125 81.5377 7.55689 81.9569 8.0777 81.9569H15.2166C17.1982 81.9569 18.8496 80.5977 19.345 78.7685C23.3336 78.8956 27.208 79.9753 30.6123 81.9315C37.1923 85.7296 41.9431 87.6477 44.725 87.6477C44.8774 87.6477 45.0172 87.6477 45.1442 87.635C56.1828 86.7712 78.692 69.9021 85.2085 64.1858C86.9361 62.6615 87.3807 60.1083 86.2628 58.0885ZM83.9509 62.7504C76.6088 69.1907 54.9761 84.9548 44.9918 85.7296C42.718 85.9075 37.9545 83.9767 31.5523 80.2802C27.9066 78.1842 23.7655 77.0029 19.4974 76.8504V57.0596H26.3823C28.6942 57.0596 30.9934 57.3391 33.2418 57.8853L53.9853 62.9537C56.2845 63.5126 57.6945 65.8372 57.1355 68.1364C57.0466 68.5048 56.9069 68.8604 56.7291 69.1907C56.7037 69.2415 56.6655 69.2796 56.6528 69.3304C56.2972 69.9148 55.8018 70.4229 55.2047 70.7785C54.2266 71.3756 53.0707 71.5534 51.9655 71.2739L35.8585 67.3361C35.3631 67.2091 34.8296 67.5267 34.7026 68.0348C34.5755 68.5429 34.8931 69.0637 35.4012 69.1907L51.5082 73.1285C53.1088 73.5223 54.7728 73.2683 56.1955 72.4045C57.0212 71.8964 57.7072 71.2231 58.2153 70.4229L80.4704 57.8472C81.1818 57.4534 81.9947 57.3518 82.7823 57.5677C83.5699 57.7837 84.2177 58.3045 84.6115 59.0158C85.2847 60.248 85.0053 61.8231 83.9509 62.7504Z" fill="#9156A2"/>
<path d="M49.8581 54.5391C50.0232 54.6534 50.2138 54.7042 50.4043 54.7042C50.5949 54.7042 50.7854 54.6534 50.9505 54.5391C52.0303 53.7896 77.3341 36.0566 77.3341 20.9531C77.3341 12.6455 70.6016 5.875 62.3195 5.875C57.5814 5.875 53.2243 8.07257 50.4043 11.8072C47.5843 8.07257 43.2273 5.875 38.4892 5.875C30.2197 5.875 23.5 12.6455 23.5 20.9531C23.5 36.0566 48.7911 53.7896 49.8581 54.5391ZM38.4892 7.78041C43.0495 7.78041 47.2032 10.105 49.5914 13.992C49.7692 14.2715 50.0741 14.4493 50.4043 14.4493C50.7346 14.4493 51.0395 14.2715 51.2173 13.992C53.6054 10.105 57.7592 7.78041 62.3195 7.78041C69.5473 7.78041 75.4286 13.6872 75.4286 20.9531C75.4286 33.8972 54.1008 49.9026 50.4043 52.5828C46.7078 49.9026 25.4054 33.8972 25.4054 20.9531C25.4054 13.6872 31.2741 7.78041 38.4892 7.78041Z" fill="#9156A2"/>
<path d="M46.6195 30.7918C46.2384 31.6048 45.7938 32.5321 45.0444 33.4975C44.3965 34.3231 43.6344 34.9837 42.9484 35.568C41.4495 36.851 39.8998 38.1721 41.1955 40.6364C41.6528 41.5002 42.4403 41.9194 43.6344 41.9194C44.4601 41.9194 45.4255 41.7161 46.4417 41.5129C47.6739 41.2588 49.0711 40.9794 50.4811 40.9794C51.8911 40.9794 53.2884 41.2588 54.5206 41.5129C55.5495 41.7161 56.5149 41.9194 57.3279 41.9194C58.5093 41.9194 59.3095 41.5002 59.7668 40.6364C61.0625 38.1721 59.5128 36.851 58.0138 35.568C57.3279 34.9837 56.5657 34.3231 55.9179 33.4975C55.1684 32.5321 54.7366 31.6048 54.3428 30.7918C53.5806 29.1785 52.9074 27.7812 50.4811 27.7812C48.0422 27.794 47.3817 29.1785 46.6195 30.7918Z" fill="#9156A2"/>
<path d="M59.2935 31.668C59.7508 32.1253 60.3859 32.3794 61.1227 32.3794C62.2532 32.3794 63.5235 31.7823 64.5143 30.8042C66.2292 29.0894 66.6102 26.7902 65.3908 25.5707C64.9335 25.1134 64.2983 24.8594 63.5616 24.8594C62.4311 24.8594 61.1608 25.4564 60.17 26.4472C59.3824 27.2221 58.8489 28.1748 58.6583 29.1148C58.4551 30.1564 58.6838 31.0583 59.2935 31.668Z" fill="#9156A2"/>
<path d="M53.8847 25.1508C54.2404 25.3287 54.6342 25.4176 55.0407 25.4176C56.5904 25.4176 58.2544 24.1473 59.1817 22.2546C60.4012 19.7649 59.982 17.1481 58.2163 16.2843C57.8607 16.1065 57.4669 16.0176 57.0477 16.0176C55.498 16.0176 53.8339 17.2878 52.9066 19.1806C52.3477 20.3238 52.119 21.5433 52.2588 22.6357C52.4239 23.8297 52.9955 24.7189 53.8847 25.1508Z" fill="#9156A2"/>
<path d="M41.6503 31.6671C42.8697 30.4476 42.4886 28.1484 40.7738 26.4335C39.783 25.4427 38.5127 24.8457 37.3822 24.8457C36.6454 24.8457 36.0103 25.0871 35.553 25.5571C34.9305 26.1668 34.7146 27.0814 34.9178 28.1103C35.1084 29.0503 35.6419 30.003 36.4295 30.7779C37.4203 31.7687 38.6905 32.353 39.8211 32.353C40.5451 32.3784 41.1803 32.1371 41.6503 31.6671Z" fill="#9156A2"/>
<path d="M45.9077 25.4176C46.3268 25.4176 46.7079 25.3287 47.0636 25.1508C48.8166 24.287 49.2358 21.6703 48.029 19.1806C47.1017 17.2878 45.4377 16.0176 43.8879 16.0176C43.4687 16.0176 43.0877 16.1065 42.7193 16.2843C40.9663 17.1481 40.5471 19.7649 41.7539 22.2546C42.6939 24.1473 44.3579 25.4176 45.9077 25.4176Z" fill="#9156A2"/>
</svg>
