<svg width="45" height="51" viewBox="0 0 45 51" fill="none" xmlns="http://www.w3.org/2000/svg">
<g filter="url(#filter0_d_330_455)">
<path d="M16.6332 16.9881C18.7302 16.6317 20.2854 14.7219 20.5221 12.4404C20.7624 10.1202 21.3042 0.796202 17.8041 1.3893C8.72488 2.9292 9.36208 18.2211 16.6332 16.9881ZM28.5789 16.9881C35.8482 18.2211 36.4854 2.9292 27.4062 1.3884C23.907 0.795302 24.4479 10.1193 24.6873 12.4395C24.9249 14.7219 26.4819 16.6317 28.5789 16.9881ZM12.9036 24.1926C12.9036 22.9794 12.4707 21.8796 11.7732 21.0795C10.6257 19.5801 6.97798 16.548 6.08248 17.3247C4.21318 18.9501 4.27348 22.9506 5.39938 25.8576C5.97808 27.474 7.37578 28.6107 9.00928 28.6107C11.1594 28.6107 12.9036 26.6325 12.9036 24.1926ZM39.1269 17.3247C38.2332 16.548 34.5855 19.5801 33.438 21.0795C32.7405 21.8796 32.3067 22.9794 32.3067 24.1926C32.3067 26.6325 34.0527 28.6107 36.201 28.6107C37.8354 28.6107 39.234 27.474 39.8127 25.8576C40.9359 22.9506 40.998 18.9501 39.1269 17.3247ZM31.8045 31.074C28.4961 29.4243 28.5987 26.2473 27.8463 23.3484C27.2478 21.0363 25.1283 19.3263 22.6056 19.3263C21.4354 19.3232 20.2959 19.6998 19.358 20.3995C18.4202 21.0993 17.7347 22.0845 17.4045 23.2071C16.599 25.9809 17.0841 29.2101 13.4778 31.0524C10.5483 32.0073 9.36208 33.4005 9.36208 36.6954C9.36208 39.372 11.6598 42.2376 14.6253 42.594C17.9337 43.0926 20.5149 42.441 22.6056 41.2494C24.6963 42.441 27.2757 43.0917 30.5895 42.594C33.5532 42.2376 35.8518 39.3828 35.8518 36.6954C35.8509 33.3285 34.7403 32.0739 31.8045 31.074ZM27.9012 35.1006H24.4713L24.4758 38.7006H20.7354L20.7408 35.1006H17.1012V31.5006H20.7417L20.7363 27.9006H24.4767L24.4722 31.5006H27.9012V35.1006Z" fill="white"/>
</g>
<defs>
<filter id="filter0_d_330_455" x="0.605469" y="1.36133" width="44" height="49.4023" filterUnits="userSpaceOnUse" color-interpolation-filters="sRGB">
<feFlood flood-opacity="0" result="BackgroundImageFix"/>
<feColorMatrix in="SourceAlpha" type="matrix" values="0 0 0 0 0 0 0 0 0 0 0 0 0 0 0 0 0 0 127 0" result="hardAlpha"/>
<feOffset dy="4"/>
<feGaussianBlur stdDeviation="2"/>
<feComposite in2="hardAlpha" operator="out"/>
<feColorMatrix type="matrix" values="0 0 0 0 0 0 0 0 0 0 0 0 0 0 0 0 0 0 0.25 0"/>
<feBlend mode="normal" in2="BackgroundImageFix" result="effect1_dropShadow_330_455"/>
<feBlend mode="normal" in="SourceGraphic" in2="effect1_dropShadow_330_455" result="shape"/>
</filter>
</defs>
</svg>
