<svg width="94" height="94" viewBox="0 0 94 94" fill="none" xmlns="http://www.w3.org/2000/svg">
<g clip-path="url(#clip0_3111_655)">
<path d="M85.4259 7.34375H19.5566C18.7957 7.34375 18.1797 7.96051 18.1797 8.7207C18.1797 9.4809 18.7957 10.0977 19.5566 10.0977H85.4259C88.6352 10.0977 91.2464 12.7088 91.2464 15.9182V27.5183C91.2464 28.2785 91.8625 28.8952 92.6234 28.8952C93.3843 28.8952 94.0003 28.2785 94.0003 27.5183V15.9182C94.0003 11.1899 90.1542 7.34375 85.4259 7.34375Z" fill="#9156A2"/>
<path d="M92.623 32.5671C91.8621 32.5671 91.2461 33.1831 91.2461 33.944V62.4735C91.2461 65.6828 88.6349 68.294 85.4256 68.294H60.8965C59.3452 68.294 57.8521 69.0262 56.9026 70.2526L47 83.041L37.0967 70.2526C36.1472 69.0262 34.6548 68.294 33.1035 68.294H8.5744C5.3651 68.294 2.75391 65.6828 2.75391 62.4735V15.9182C2.75391 12.7088 5.3651 10.0977 8.5744 10.0977H13.1305C13.8907 10.0977 14.5075 9.4809 14.5075 8.7207C14.5075 7.96051 13.8907 7.34375 13.1305 7.34375H8.5744C3.84615 7.34375 0 11.1899 0 15.9182V62.4735C0 67.2018 3.84615 71.0479 8.5744 71.0479H33.1035C33.8085 71.0479 34.4877 71.3814 34.9194 71.9386L45.9113 86.1327C46.4614 86.8441 47.5379 86.8449 48.0887 86.1327L59.0799 71.9386C59.5123 71.3814 60.1908 71.0479 60.8965 71.0479H85.4256C90.1531 71.0479 94 67.2018 94 62.4735V33.944C94 33.1831 93.384 32.5671 92.623 32.5671Z" fill="#9156A2"/>
<path d="M55.9467 34.4714H51.0851L49.5826 29.8471C48.7715 27.35 45.2345 27.3457 44.4219 29.8471L42.9195 34.4714H38.0578C35.4323 34.4714 34.3357 37.8328 36.4636 39.379L40.3965 42.2369L38.894 46.8611C38.0793 49.3683 40.9494 51.4345 43.0686 49.894L47.0023 47.0361L50.9359 49.894C51.42 50.2461 51.9751 50.4218 52.5302 50.4218C54.2478 50.4218 55.7187 48.7329 55.1105 46.8604L53.6081 42.2369L57.5417 39.379C59.6659 37.8356 58.5773 34.4714 55.9467 34.4714ZM51.965 40.0266C51.0112 40.7193 50.6153 41.9385 50.9797 43.0594L52.452 47.5919L48.5972 44.7907C47.6434 44.0979 46.3618 44.0979 45.408 44.7907L41.5525 47.5912L43.0249 43.0594C43.3892 41.9385 42.9933 40.7193 42.0395 40.0266L38.1847 37.2253H42.9496C44.1286 37.2253 45.1649 36.4716 45.5299 35.3507L47.003 30.8189L48.4753 35.3507C48.8396 36.4716 49.8767 37.2253 51.0557 37.2253H55.8205L51.965 40.0266Z" fill="#9156A2"/>
<path d="M9.45961 39.379L13.3933 42.2369L11.8908 46.8604C11.079 49.3583 13.9369 51.4402 16.0654 49.894L19.999 47.0361L23.932 49.894C24.416 50.2461 24.9719 50.4218 25.5269 50.4218C27.2438 50.4218 28.7154 48.7329 28.1073 46.8604L26.6048 42.2369L30.5378 39.379C32.6627 37.8356 31.5733 34.4714 28.9428 34.4714H24.0811L22.5787 29.8471C21.7676 27.35 18.2312 27.3457 17.4187 29.8471L15.9162 34.4714H11.0546C8.42833 34.4714 7.33179 37.8328 9.45961 39.379ZM15.9456 37.2253C17.1247 37.2253 18.1617 36.4716 18.526 35.3507L19.999 30.8189L21.4714 35.3507C21.8357 36.4716 22.8727 37.2253 24.0517 37.2253H28.8173L24.9625 40.0266C24.008 40.7193 23.6121 41.9385 23.9764 43.0594L25.4488 47.5912L21.594 44.7907C20.6402 44.0979 19.3586 44.0972 18.4048 44.7907L14.5493 47.5912L16.0217 43.0594C16.386 41.9385 15.9901 40.7193 15.0363 40.0266L11.1808 37.2253H15.9456Z" fill="#9156A2"/>
<path d="M82.7162 34.4711H77.8546L76.3521 29.8469C75.5374 27.3404 72.0011 27.3555 71.1921 29.8469L69.6897 34.4711H64.828C62.2018 34.4711 61.1052 37.8325 63.233 39.3787L67.1667 42.2366L65.6635 46.8609C64.8495 49.3681 67.7196 51.4342 69.8388 49.8937L73.7718 47.0358L77.7054 49.8937C78.1895 50.2459 78.7446 50.4216 79.3004 50.4216C81.0173 50.4216 82.4889 48.7334 81.8807 46.8601L80.3783 42.2366L84.3112 39.3787C86.4354 37.8354 85.3468 34.4711 82.7162 34.4711ZM78.7352 40.0263C77.7814 40.7191 77.3848 41.9382 77.7499 43.0592L79.2222 47.5916L75.3667 44.7904C74.4129 44.0976 73.1313 44.0976 72.1775 44.7904L68.322 47.5909L69.7951 43.0592C70.1594 41.9382 69.7635 40.7191 68.809 40.0263L64.955 37.2251H69.7198C70.8981 37.2251 71.9351 36.4713 72.3001 35.3504L73.7725 30.8179L75.2448 35.3504C75.6091 36.4713 76.6462 37.2251 77.8252 37.2251H82.59L78.7352 40.0263Z" fill="#9156A2"/>
</g>
<defs>
<clipPath id="clip0_3111_655">
<rect width="94" height="94" fill="white"/>
</clipPath>
</defs>
</svg>
