<svg width="44" height="44" viewBox="0 0 44 44" fill="none" xmlns="http://www.w3.org/2000/svg">
<path d="M14.9797 14.641C13.9196 14.6244 12.8982 14.2401 12.09 13.5539C10.4043 12.0079 9.38302 9.86894 9.24062 7.58605C8.79591 3.0237 11.2848 0.331676 13.9732 0.0315449C14.6209 -0.0402731 15.2765 0.0189564 15.9009 0.205708C16.5253 0.392461 17.1057 0.702918 17.6077 1.1186C18.3565 1.79359 18.9645 2.60997 19.3966 3.52078C19.8288 4.43159 20.0766 5.41886 20.1258 6.42579C20.5358 10.6789 18.2702 14.641 14.9797 14.641ZM5.26023 25.6213C4.28661 25.5982 3.35719 25.2102 2.65605 24.5343C1.10648 22.9209 0.19596 20.7993 0.0939637 18.5646C-0.30865 14.0023 1.93501 11.3102 4.35984 11.0101C4.95088 10.9434 5.54935 11.0061 6.11374 11.1939C6.67814 11.3816 7.19495 11.6898 7.62833 12.0972C9.02031 13.5214 9.83025 15.4141 9.89944 17.4044C10.2673 21.6593 8.01631 25.6213 5.26023 25.6213ZM29.0199 14.641C25.7075 14.641 23.4675 10.677 23.883 6.4203C23.9322 5.41337 24.18 4.4261 24.6122 3.51529C25.0443 2.60448 25.6523 1.7881 26.4011 1.11311C26.9026 0.69992 27.4817 0.391342 28.1044 0.205583C28.727 0.019825 29.3806 -0.0393515 30.0265 0.0315449C32.7148 0.331676 35.2037 3.0237 34.759 7.58605C34.6171 9.86959 33.5958 12.0093 31.9096 13.5557C31.1012 14.2413 30.0798 14.6249 29.0199 14.641ZM38.5674 25.6213C35.1159 25.6213 33.3938 21.6574 33.7818 17.4007C33.8587 15.3976 34.6972 13.4994 36.1261 12.0935C36.5799 11.6832 37.1159 11.374 37.6983 11.1866C38.2808 10.9992 38.8964 10.9378 39.5044 11.0064C42.0079 11.3066 44.3266 13.9986 43.913 18.561C43.7973 20.8109 42.8511 22.938 41.2576 24.5306C40.5246 25.2112 39.5674 25.5993 38.5674 25.6213ZM28.7967 43.922C27.1453 43.9513 25.5182 43.5211 24.0971 42.6794C23.4654 42.2939 22.7398 42.09 21.9998 42.09C21.2599 42.09 20.5342 42.2939 19.9026 42.6794C14.233 46.0723 7.17631 42.436 7.35931 34.4661C7.35931 26.1411 15.6074 18.3011 21.9998 18.3011C28.3922 18.3011 36.6403 26.1411 36.6403 34.4661C36.6403 40.0331 33.4158 43.922 28.7967 43.922ZM21.9998 36.6017C23.6512 36.5725 25.2783 37.0027 26.6994 37.8444C30.3193 39.9178 31.1812 36.2705 31.1501 34.4661C31.1501 29.0674 25.3598 23.7913 21.9998 23.7913C18.6398 23.7913 12.8495 29.0674 12.8495 34.4661C12.8074 36.243 13.695 39.9306 17.3002 37.8444C18.7213 37.0027 20.3484 36.5725 21.9998 36.6017Z" fill="#61C7CB"/>
</svg>
