<svg width="90" height="51" viewBox="0 0 90 51" fill="none" xmlns="http://www.w3.org/2000/svg">
<ellipse cx="4.33727" cy="4.3372" rx="4.33727" ry="4.3372" transform="matrix(-0.969182 -0.246346 -0.246346 0.969182 84.5039 42.5059)" fill="#F3D44C"/>
<ellipse cx="4.33727" cy="4.3372" rx="4.33727" ry="4.3372" transform="matrix(-0.969182 -0.246346 -0.246346 0.969182 77.8281 33.5625)" fill="#F3D44C"/>
<ellipse cx="4.33727" cy="4.3372" rx="4.33727" ry="4.3372" transform="matrix(-0.969182 -0.246346 -0.246346 0.969182 69.1406 25.8145)" fill="#F3D44C"/>
<path d="M49.9775 20.7287C49.3874 23.0503 50.791 25.4106 53.1126 26.0007C55.4342 26.5908 57.7946 25.1872 58.3847 22.8656C58.9748 20.5441 57.5711 18.1837 55.2495 17.5936C52.9279 17.0035 50.5676 18.4072 49.9775 20.7287Z" fill="#F3D44C"/>
<ellipse cx="4.33727" cy="4.3372" rx="4.33727" ry="4.3372" transform="matrix(-0.969182 -0.246346 -0.246346 0.969182 48.957 13.0117)" fill="#F3D44C"/>
<ellipse cx="4.33727" cy="4.3372" rx="4.33727" ry="4.3372" transform="matrix(-0.969182 -0.246346 -0.246346 0.969182 27.5469 5.01172)" fill="#F3D44C"/>
<ellipse cx="4.33727" cy="4.3372" rx="4.33727" ry="4.3372" transform="matrix(-0.969182 -0.246346 -0.246346 0.969182 38.2539 8.16016)" fill="#F3D44C"/>
<ellipse cx="4.33727" cy="4.3372" rx="4.33727" ry="4.3372" transform="matrix(-0.969182 -0.246346 -0.246346 0.969182 16.3359 2.16211)" fill="#F3D44C"/>
</svg>
