<svg width="94" height="94" viewBox="0 0 94 94" fill="none" xmlns="http://www.w3.org/2000/svg">
<g clip-path="url(#clip0_3111_608)">
<path d="M77.5739 49.6855C76.8184 49.6855 76.206 50.298 76.206 51.0535C76.206 52.0113 75.4268 52.7905 74.469 52.7905C73.5114 52.7905 72.732 52.0113 72.732 51.0535C72.732 50.2978 72.1195 49.6855 71.364 49.6855C70.6086 49.6855 69.9961 50.298 69.9961 51.0535C69.9961 53.5199 72.0028 55.5264 74.469 55.5264C76.9352 55.5264 78.9419 53.5197 78.9419 51.0535C78.9419 50.2976 78.3294 49.6855 77.5739 49.6855Z" fill="#9156A2"/>
<path d="M90.4096 49.9028L86.5593 48.6694C86.0662 48.5113 85.6775 48.1177 85.5198 47.6163C84.7083 45.0362 83.4837 42.6141 81.8801 40.4168C81.1492 39.4153 80.3364 38.459 79.4485 37.5485C80.0166 35.0566 80.3254 32.2364 80.2854 29.8C80.2281 26.3144 79.5315 24.2701 78.156 23.5497C77.4152 23.1612 75.1607 21.9811 62.9578 27.5671C62.6688 27.6993 62.3989 27.8621 62.1491 28.0487C61.3264 27.8276 60.4855 27.6231 59.6395 27.4395C59.5376 27.4173 59.4326 27.3976 59.33 27.376C60.3188 25.2158 60.8962 22.8697 61.0047 20.4477C61.0385 19.6928 60.4541 19.0535 59.6992 19.0199C58.9463 18.9824 58.305 19.5703 58.2714 20.3253C58.0931 24.3076 56.4411 28.0545 53.62 30.8758C51.9345 32.5614 49.9608 33.7858 47.8574 34.5569C44.2096 34.045 40.494 34.045 36.8462 34.5569C34.7425 33.7858 32.7691 32.5614 31.0835 30.8758C28.0737 27.866 26.416 23.8642 26.416 19.6076C26.416 15.3508 28.0737 11.3492 31.0835 8.33933C34.0934 5.32931 38.0953 3.67164 42.3518 3.67164C46.6082 3.67164 50.6102 5.32931 53.62 8.33933C54.8295 9.54885 55.829 10.9291 56.5908 12.4414C56.9306 13.1163 57.7533 13.388 58.428 13.048C59.1029 12.7083 59.3744 11.8856 59.0346 11.2109C58.1418 9.43759 56.971 7.82068 55.5549 6.40444C52.0283 2.87779 47.3393 0.935547 42.352 0.935547C37.3646 0.935547 32.6756 2.87779 29.149 6.40444C25.6223 9.93127 23.6801 14.6201 23.6801 19.6074C23.6801 24.5947 25.6223 29.2837 29.149 32.8104C30.1663 33.8277 31.273 34.7025 32.4436 35.4354C32.444 35.4354 32.4443 35.4352 32.4447 35.4352C31.5941 35.6562 30.7499 35.9045 29.9151 36.1835C29.1986 36.4231 28.8119 37.1981 29.0515 37.9148C29.2909 38.6314 30.0662 39.018 30.7826 38.7786C38.2431 36.2845 46.4608 36.2845 53.9213 38.7786C54.0652 38.8267 54.2114 38.8495 54.3551 38.8495C54.9274 38.8495 55.4609 38.4874 55.6524 37.9148C55.892 37.1982 55.5053 36.4231 54.7888 36.1835C53.954 35.9045 53.1098 35.6561 52.2592 35.4352C52.2596 35.4352 52.26 35.4354 52.2603 35.4354C53.4311 34.7025 54.5376 33.8277 55.5549 32.8104C56.4549 31.9104 57.2493 30.9276 57.9391 29.8831C58.3162 29.9564 58.6905 30.0331 59.0594 30.1132C59.5507 30.2198 60.0397 30.3344 60.5244 30.4547C60.5092 30.5142 60.4936 30.5735 60.4809 30.6339C59.8137 33.7999 59.8571 36.6001 60.6096 38.9562C61.286 41.0739 62.5067 42.7896 64.2374 44.0558C66.2773 45.5481 68.7401 46.1927 70.9709 46.1927C72.6499 46.1927 74.1978 45.8273 75.3346 45.1835C76.6205 44.4552 77.6978 42.9205 78.5506 40.6164C78.9448 41.0765 79.3184 41.5478 79.6705 42.0303C81.0983 43.9863 82.1883 46.142 82.9102 48.4373C83.3341 49.7854 84.3865 50.8462 85.7251 51.2753L89.5754 52.5087C90.5857 52.8324 91.2645 53.7623 91.2645 54.8231V61.2075C91.2645 62.2683 90.5857 63.1982 89.5754 63.5219L83.3719 65.509C82.3794 65.8271 81.5395 66.5092 81.0069 67.4297C78.5697 71.6417 74.7379 75.1273 69.6173 77.7895C69.0257 78.0974 68.616 78.648 68.4926 79.3005L66.5057 89.821C66.4508 90.1109 66.1969 90.3211 65.9019 90.3211H59.4418C59.1467 90.3211 58.8928 90.1107 58.8379 89.821L57.7375 84.0068C57.5208 82.8628 56.4479 82.1029 55.2931 82.2779C52.5104 82.6987 49.643 82.9118 46.7711 82.9118C44.6344 82.9118 42.5251 82.7927 40.5013 82.5575C39.3823 82.4288 38.3399 83.1916 38.1308 84.2965L37.085 89.821C37.0301 90.1109 36.7762 90.3211 36.4812 90.3211H30.0211C29.726 90.3211 29.4721 90.1107 29.4165 89.8166L27.5034 79.8801C27.3803 79.2399 26.9782 78.6956 26.3997 78.3866C17.6709 73.7268 13.0572 65.9417 13.0572 55.8734C13.0572 50.7864 14.1701 46.2882 16.365 42.5032C18.4132 38.971 21.4046 36.0506 25.2563 33.8227C25.9102 33.4443 26.1337 32.6075 25.7554 31.9533C25.3772 31.2994 24.5404 31.0763 23.8863 31.4542C16.4179 35.7745 11.9134 42.4397 10.6732 50.9052V50.905C10.5416 50.8931 10.4098 50.8817 10.2785 50.8681C10.3024 49.9547 10.1371 49.0331 9.77729 48.1386C8.98361 46.1657 7.3533 44.7417 5.62366 44.511C4.26066 44.3285 2.96357 44.9072 2.06341 46.0965C0.758242 47.8212 0.971027 49.186 1.37916 50.0272C2.06818 51.447 3.83931 52.4512 6.77847 53.0826C6.69768 53.2036 6.60882 53.3251 6.51152 53.4472C4.77491 55.6252 2.72894 56.1068 1.40045 56.1521C0.62275 56.1784 0 56.8028 0 57.581V57.5876C0 58.3552 0.605676 58.9813 1.37255 59.0163C1.47077 59.0209 1.5734 59.0233 1.68025 59.0233C3.36123 59.0233 6.05914 58.4033 8.65112 55.1532C9.06035 54.6402 9.39376 54.099 9.65005 53.5397C9.90819 53.5689 10.1562 53.5939 10.3938 53.6159C10.3938 53.6154 10.3938 53.615 10.394 53.6145C10.3473 54.3558 10.3215 55.108 10.3215 55.8734C10.3215 61.57 11.6795 66.6491 14.3576 70.9703C16.8269 74.9543 20.3624 78.2164 24.8692 80.6696L26.729 90.3296C27.0281 91.9099 28.4126 93.057 30.0211 93.057H36.4812C38.0896 93.057 39.4741 91.9099 39.7732 90.3296L40.7187 85.3343C42.6824 85.5423 44.7155 85.6477 46.7709 85.6477C49.5909 85.6477 52.4076 85.4513 55.1527 85.0635L56.1494 90.3299C56.4487 91.9103 57.8331 93.0572 59.4414 93.0572H65.9015C67.51 93.0572 68.8945 91.9101 69.1937 90.3292L71.1283 80.0863C76.5935 77.1964 80.713 73.4 83.3747 68.7999C83.5666 68.4683 83.862 68.225 84.2064 68.1147L90.4096 66.1277C92.5571 65.4394 94 63.4623 94 61.2072V54.8227C94 52.5678 92.5571 50.5907 90.4096 49.9028ZM77.344 33.6442C76.8175 38.1471 75.4051 41.9989 73.9859 42.8026C72.3728 43.7164 68.6486 43.8928 65.8525 41.8474C63.0531 39.7996 62.1213 36.1171 63.1577 31.1979C63.2618 30.7038 63.6129 30.2762 64.0966 30.0548C70.9454 26.9198 74.894 25.8944 76.3609 25.8944C76.5823 25.8944 76.7471 25.9177 76.8569 25.9607C77.2976 26.4303 77.8755 29.0999 77.344 33.6442ZM3.84096 48.8326C3.69941 48.5407 4.03355 48.0275 4.24542 47.7474C4.58121 47.3038 4.89057 47.2131 5.12429 47.2131C5.17367 47.2131 5.21975 47.2171 5.26198 47.2228C5.89097 47.3067 6.77222 47.9989 7.2391 49.1594C7.34907 49.4326 7.49191 49.8851 7.52532 50.4495C5.63155 50.0572 4.16023 49.4915 3.84096 48.8326Z" fill="#9156A2"/>
<path d="M43.6853 18.0408V13.1455C45.3734 13.2661 46.0006 14.0377 46.5793 14.0377C47.3028 14.0377 47.6404 13.1214 47.6404 12.6632C47.6404 11.4814 45.3251 10.975 43.6853 10.9267V10.2753C43.6853 9.986 43.3234 9.7207 42.9617 9.7207C42.5516 9.7207 42.2622 9.986 42.2622 10.2753V10.9746C39.9712 11.2159 37.6801 12.4217 37.6801 15.4604C37.6801 18.5473 40.0918 19.4156 42.2622 20.1872V25.8546C39.8023 25.6616 39.1512 23.9735 38.3554 23.9735C37.7524 23.9735 37.2461 24.7693 37.2461 25.3482C37.2461 26.5298 39.2719 28.1456 42.2622 28.1939V28.9415C42.2622 29.2308 42.5518 29.4961 42.9617 29.4961C43.3236 29.4961 43.6853 29.2308 43.6853 28.9415V28.1216C46.2899 27.7597 48.0745 26.1198 48.0745 23.1535C48.0745 19.8738 45.7834 18.8124 43.6853 18.0408ZM42.4069 17.5827C41.1287 17.1004 40.0918 16.5941 40.0918 15.2195C40.0918 13.9654 41.0564 13.3625 42.4069 13.1937V17.5827ZM43.5404 25.8063V20.7178C44.722 21.2241 45.6626 21.8994 45.6626 23.4186C45.6626 24.7936 44.8427 25.5652 43.5404 25.8063Z" fill="#9156A2"/>
</g>
<defs>
<clipPath id="clip0_3111_608">
<rect width="94" height="94" fill="white"/>
</clipPath>
</defs>
</svg>
