<svg width="95" height="94" viewBox="0 0 95 94" fill="none" xmlns="http://www.w3.org/2000/svg">
<path d="M26.515 0H21.1065C20.3169 0 19.6771 0.640006 19.6771 1.42946V3.42732H18.1118C12.0837 3.42732 7.17969 8.33128 7.17969 14.3594V25.5008C7.17969 26.2902 7.81969 26.9302 8.60915 26.9302C9.39878 26.9302 10.0386 26.2902 10.0386 25.5008V14.3596C10.0386 9.90798 13.6604 6.28661 18.1116 6.28661H19.6769V9.31277C19.6769 10.1022 20.3167 10.7422 21.1063 10.7422H26.5148C27.3045 10.7422 27.9443 10.1022 27.9443 9.31277V1.42946C27.9446 0.640006 27.3048 0 26.515 0ZM25.0857 7.88295H22.5364V2.8591H25.0857V7.88295Z" fill="#9156A2"/>
<path d="M51.9219 3.42751H50.3316V1.42946C50.3316 0.640007 49.6918 0 48.9022 0H43.4939C42.7043 0 42.0644 0.640007 42.0644 1.42946V9.31241C42.0644 10.1019 42.7043 10.7419 43.4939 10.7419H48.9022C49.6918 10.7419 50.3316 10.1019 50.3316 9.31241V6.28624H51.9219C56.3733 6.28624 59.9949 9.9078 59.9949 14.3592V31.2718C59.9949 45.049 48.786 56.2576 35.0088 56.2576C28.3348 56.2576 22.0603 53.6587 17.3412 48.9396C12.6221 44.2205 10.023 37.9458 10.023 31.272V30.1859C10.023 29.3964 9.38316 28.7564 8.59352 28.7564C7.80389 28.7564 7.16406 29.3964 7.16406 30.1859V31.272C7.16406 38.7096 10.0602 45.7021 15.3196 50.9613C20.1471 55.7885 26.4349 58.6232 33.1864 59.0565V65.8889C33.1864 66.6784 33.8262 67.3184 34.6159 67.3184C35.4055 67.3184 36.0453 66.6784 36.0453 65.8889V59.0958C50.9204 58.5483 62.8538 46.2786 62.8538 31.2722V14.3596C62.854 8.33147 57.9498 3.42751 51.9219 3.42751ZM47.4724 7.88295H44.923V2.8591H47.4724V7.88295Z" fill="#9156A2"/>
<path d="M77.1149 26.4102C74.1394 26.4102 71.7188 28.8308 71.7188 31.8063C71.7188 34.7818 74.1394 37.2025 77.1149 37.2025C80.0902 37.2025 82.5111 34.7818 82.5111 31.8063C82.5111 28.8308 80.0904 26.4102 77.1149 26.4102ZM77.1149 34.3434C75.7159 34.3434 74.5778 33.2053 74.5778 31.8063C74.5778 30.4074 75.7161 29.2693 77.1149 29.2693C78.5139 29.2693 79.652 30.4074 79.652 31.8063C79.652 33.2051 78.5139 34.3434 77.1149 34.3434Z" fill="#9156A2"/>
<path d="M46.0079 38.006C45.127 34.0361 41.3691 28.293 36.8787 28.293H36.8119C32.3218 28.293 28.564 34.0363 27.6829 38.0062C26.8824 41.6143 28.5717 42.8328 29.3354 43.1892C30.8398 43.8914 32.595 44.0139 34.4373 43.5472C35.2102 43.3515 36.0092 43.2522 36.8119 43.2522H36.8499H36.8793C37.682 43.2522 38.481 43.3515 39.2539 43.5472C39.9864 43.7326 40.7098 43.8266 41.4039 43.8266H41.4041C42.4563 43.8266 43.4494 43.612 44.3558 43.189C45.1191 42.8326 46.8084 41.6141 46.0079 38.006ZM43.1464 40.5987C42.2408 41.0215 41.1526 41.0791 39.9559 40.776C38.9535 40.5221 37.9184 40.3934 36.8793 40.3934H36.8499H36.8119C35.7728 40.3934 34.7375 40.5223 33.7353 40.776C32.5384 41.0793 31.4503 41.0213 30.545 40.5987C30.3843 40.5236 30.1987 39.8682 30.4743 38.6258C31.2052 35.3314 34.336 31.1523 36.8123 31.1523H36.8791C39.3552 31.1523 42.4859 35.3314 43.2171 38.6256C43.4925 39.8678 43.3071 40.5236 43.1464 40.5987Z" fill="#9156A2"/>
<path d="M35.7878 18.0585C34.8462 15.9668 32.7552 14.6152 30.461 14.6152C29.6323 14.6152 28.8269 14.7889 28.0664 15.1309C26.6441 15.771 25.5564 16.9269 25.0034 18.3853C24.4506 19.8436 24.4987 21.4302 25.1389 22.8523C26.1934 25.195 29.7228 28.7371 32.6394 28.7372H32.6398C33.1454 28.7372 33.6231 28.6377 34.0587 28.4417C35.5565 27.7673 36.4636 25.9887 36.6129 23.433C36.7243 21.5283 36.4005 19.4188 35.7878 18.0585ZM33.7588 23.2662C33.6692 24.8008 33.2432 25.6732 32.885 25.8346C32.8199 25.864 32.7396 25.8783 32.6398 25.8783H32.6396C31.2184 25.8783 28.5098 23.375 27.7461 21.679C27.4195 20.9531 27.395 20.1432 27.677 19.3989C27.9589 18.6547 28.5144 18.0648 29.2402 17.738C29.6288 17.563 30.0395 17.4742 30.461 17.4742C31.6326 17.4742 32.7002 18.1641 33.181 19.2321C33.5276 20.0026 33.8564 21.5934 33.7588 23.2662Z" fill="#9156A2"/>
<path d="M28.4216 29.1614C27.6187 27.7035 26.3958 26.294 25.306 25.5705C24.4495 25.0019 23.455 24.7012 22.4302 24.7012C20.6794 24.7012 19.057 25.5709 18.0898 27.028C16.5023 29.4193 17.1561 32.6566 19.5472 34.2444C20.8843 35.132 23.207 35.7764 25.0701 35.7766C25.0704 35.7766 25.0706 35.7766 25.0706 35.7766C27.3086 35.7763 28.3591 34.9024 28.8458 34.1693C29.6687 32.9304 29.518 31.1519 28.4216 29.1614ZM26.4643 32.5878C26.4035 32.6794 26.0347 32.9173 25.0708 32.9173H25.0704C23.6173 32.9172 21.8928 32.3695 21.1287 31.8624C20.0508 31.1468 19.756 29.6872 20.4716 28.6093C20.9076 27.9524 21.6398 27.5603 22.43 27.5603C22.8904 27.5603 23.3382 27.6959 23.7243 27.9524C24.3252 28.3514 25.2715 29.3687 25.9168 30.5407C26.5702 31.7262 26.5678 32.4316 26.4643 32.5878Z" fill="#9156A2"/>
<path d="M48.6975 18.3855C48.1447 16.927 47.057 15.7711 45.6347 15.1309C44.8746 14.7887 44.0688 14.6152 43.24 14.6152C40.9455 14.6152 38.8546 15.9668 37.9131 18.0585C36.6788 20.8005 36.3913 26.9782 39.642 28.4418C40.0776 28.6379 40.5554 28.7374 41.0612 28.7374C43.9775 28.7374 47.5069 25.1954 48.5619 22.8527C49.2022 21.4306 49.2505 19.844 48.6975 18.3855ZM45.9552 21.6786C45.1915 23.3748 42.4827 25.878 41.0617 25.878C40.9618 25.878 40.8814 25.8636 40.8162 25.8343C40.4582 25.6732 40.0323 24.8006 39.9427 23.2658C39.8449 21.5931 40.1737 20.002 40.5205 19.2317C41.0011 18.1639 42.0689 17.474 43.2406 17.474C43.6618 17.474 44.0726 17.5628 44.4613 17.7378C45.1872 18.0644 45.7426 18.6547 46.0246 19.3988C46.3064 20.1432 46.282 20.9529 45.9552 21.6786Z" fill="#9156A2"/>
<path d="M55.5994 27.0279C54.6323 25.5709 53.0097 24.7012 51.2589 24.7012C50.2341 24.7012 49.2394 25.0017 48.3831 25.5705C46.1789 27.0337 43.0853 31.5213 44.8431 34.1693C45.33 34.9024 46.3799 35.7764 48.6187 35.7764C50.4816 35.7764 52.8046 35.132 54.1417 34.2442C56.5332 32.6565 57.187 29.4193 55.5994 27.0279ZM52.5604 31.8621C51.7961 32.3695 50.0718 32.9172 48.6187 32.9172C47.6546 32.9172 47.2858 32.6792 47.2248 32.5876C47.1213 32.4317 47.1189 31.726 47.7719 30.5404C48.4175 29.3681 49.3635 28.351 49.9646 27.9521C50.3507 27.6956 50.7985 27.5599 51.2589 27.5599C52.0493 27.5599 52.7813 27.9522 53.2173 28.609C53.9331 29.687 53.6383 31.1466 52.5604 31.8621Z" fill="#9156A2"/>
<path d="M77.0996 21.0781C71.1813 21.0781 66.3666 25.893 66.3666 31.8112C66.3666 37.2446 70.4258 41.7447 75.6702 42.4464V71.3337C75.6702 82.2559 66.7845 91.1416 55.8621 91.1416C44.94 91.1416 36.0542 82.2559 36.0542 71.3337V70.5755C36.0542 69.786 35.4144 69.146 34.6248 69.146C33.8351 69.146 33.1953 69.786 33.1953 70.5755V71.3337C33.1953 83.8324 43.3638 94.0007 55.8625 94.0007C68.3612 94.0007 78.5295 83.8324 78.5295 71.3337V42.4462C83.774 41.7447 87.8331 37.2444 87.8331 31.8112C87.8327 25.8929 83.018 21.0781 77.0996 21.0781ZM77.0996 39.6851C72.7578 39.6851 69.2257 36.1528 69.2257 31.8112C69.2257 27.4696 72.758 23.9372 77.0996 23.9372C81.4413 23.9372 84.9736 27.4696 84.9736 31.8112C84.9736 36.1528 81.4414 39.6851 77.0996 39.6851Z" fill="#9156A2"/>
</svg>
